<svg id="visual" viewBox="0 0 960 540" width="960" height="540" xmlns="http://www.w3.org/2000/svg" xmlns:xlink="http://www.w3.org/1999/xlink" version="1.1"><rect x="0" y="0" width="960" height="540" fill="#00233e"></rect><path d="M0 375L22.8 373.8C45.7 372.7 91.3 370.3 137 379.2C182.7 388 228.3 408 274 411.7C319.7 415.3 365.3 402.7 411.2 392.3C457 382 503 374 548.8 380.2C594.7 386.3 640.3 406.7 686 413.3C731.7 420 777.3 413 823 410C868.7 407 914.3 408 937.2 408.5L960 409L960 541L937.2 541C914.3 541 868.7 541 823 541C777.3 541 731.7 541 686 541C640.3 541 594.7 541 548.8 541C503 541 457 541 411.2 541C365.3 541 319.7 541 274 541C228.3 541 182.7 541 137 541C91.3 541 45.7 541 22.8 541L0 541Z" fill="#dafa69"></path><path d="M0 405L22.8 408C45.7 411 91.3 417 137 416.3C182.7 415.7 228.3 408.3 274 410.5C319.7 412.7 365.3 424.3 411.2 428.2C457 432 503 428 548.8 423.8C594.7 419.7 640.3 415.3 686 415C731.7 414.7 777.3 418.3 823 420.7C868.7 423 914.3 424 937.2 424.5L960 425L960 541L937.2 541C914.3 541 868.7 541 823 541C777.3 541 731.7 541 686 541C640.3 541 594.7 541 548.8 541C503 541 457 541 411.2 541C365.3 541 319.7 541 274 541C228.3 541 182.7 541 137 541C91.3 541 45.7 541 22.8 541L0 541Z" fill="#d8e354"></path><path d="M0 457L22.8 454.7C45.7 452.3 91.3 447.7 137 443C182.7 438.3 228.3 433.7 274 434.3C319.7 435 365.3 441 411.2 444.3C457 447.7 503 448.3 548.8 452.2C594.7 456 640.3 463 686 465.5C731.7 468 777.3 466 823 458.2C868.7 450.3 914.3 436.7 937.2 429.8L960 423L960 541L937.2 541C914.3 541 868.7 541 823 541C777.3 541 731.7 541 686 541C640.3 541 594.7 541 548.8 541C503 541 457 541 411.2 541C365.3 541 319.7 541 274 541C228.3 541 182.7 541 137 541C91.3 541 45.7 541 22.8 541L0 541Z" fill="#d4cc42"></path><path d="M0 488L22.8 485.5C45.7 483 91.3 478 137 475.5C182.7 473 228.3 473 274 474.8C319.7 476.7 365.3 480.3 411.2 478.3C457 476.3 503 468.7 548.8 466.5C594.7 464.3 640.3 467.7 686 472.3C731.7 477 777.3 483 823 480.3C868.7 477.7 914.3 466.3 937.2 460.7L960 455L960 541L937.2 541C914.3 541 868.7 541 823 541C777.3 541 731.7 541 686 541C640.3 541 594.7 541 548.8 541C503 541 457 541 411.2 541C365.3 541 319.7 541 274 541C228.3 541 182.7 541 137 541C91.3 541 45.7 541 22.8 541L0 541Z" fill="#ceb632"></path><path d="M0 495L22.8 495.7C45.7 496.3 91.3 497.7 137 498.5C182.7 499.3 228.3 499.7 274 501.5C319.7 503.3 365.3 506.7 411.2 506.3C457 506 503 502 548.8 501.3C594.7 500.7 640.3 503.3 686 506.8C731.7 510.3 777.3 514.7 823 512C868.7 509.3 914.3 499.7 937.2 494.8L960 490L960 541L937.2 541C914.3 541 868.7 541 823 541C777.3 541 731.7 541 686 541C640.3 541 594.7 541 548.8 541C503 541 457 541 411.2 541C365.3 541 319.7 541 274 541C228.3 541 182.7 541 137 541C91.3 541 45.7 541 22.8 541L0 541Z" fill="#c7a024"></path></svg>