<svg version="1.1" xmlns="http://www.w3.org/2000/svg" viewBox="0 0 394.0893777341875 588.3150150804054" width="1182.2681332025625" height="1764.9450452412161" filter="invert(93%) hue-rotate(180deg)">
  <!-- svg-source:excalidraw -->
  
  <defs>
    <style class="style-fonts">
      
    </style>
    
  </defs>
  <g stroke-linecap="round"><g transform="translate(15.72490089112597 416.1729323189571) rotate(0 90.12687607934316 -151.00910654837529)"><path d="M-0.36 -1.75 C30.28 -52.3, 153.88 -250.95, 184.25 -301.42 M-4 3.47 C26.43 -48.06, 152.53 -254.54, 183.19 -305.49" stroke="#1e1e1e" stroke-width="4" fill="none"></path></g></g><mask></mask><g stroke-linecap="round"><g transform="translate(381.1067995231571 420.22148807027946) rotate(0 -91.50260815562757 -151.3625296182383)"><path d="M-2.42 -2.57 C-37.54 -64.15, -73.97 -124.86, -183.04 -301.8 M0.03 -0.29 C-39.21 -65.01, -78.29 -126.07, -183.01 -302.44" stroke="#1e1e1e" stroke-width="4" fill="none"></path></g></g><mask></mask><g stroke-linecap="round"><g transform="translate(10.096605380100698 420.20568460791395) rotate(0 182.90810208409405 -0.3898925987357984)"><path d="M-0.1 -1.27 C105.48 -1.37, 209.48 0.1, 364.31 -2.62 M0.54 -0.9 C138.87 2.53, 277.36 2.8, 365.91 -0.45" stroke="#1e1e1e" stroke-width="4" fill="none"></path></g></g><mask></mask><g stroke-linecap="round"><g transform="translate(14.609021218493751 420.5132560441969) rotate(0 28.745272574840413 13.960360851655707)"><path d="M0.7 -0.09 C10.69 4.29, 49.62 23.23, 59.86 28.26 M-2.37 -2.6 C7.14 1.85, 46.37 24.61, 56.9 30.52" stroke="#1e1e1e" stroke-width="4" fill="none"></path></g></g><mask></mask><g stroke-linecap="round"><g transform="translate(382.95983654347384 415.75517289744806) rotate(0 -31.47122109102486 19.051165459526374)"><path d="M1.13 2.48 C-9.74 8.41, -52.09 28.19, -63.17 33.17 M-1.7 1.36 C-12.9 7.98, -53.19 31.14, -64.07 36.74" stroke="#1e1e1e" stroke-width="4" fill="none"></path></g></g><mask></mask><g stroke-linecap="round"><g transform="translate(73.03027290003973 449.1113877776867) rotate(0 122.4845808970993 2.207967049398576)"><path d="M1.96 0.94 C42.72 1.75, 204.6 4.9, 245.38 5.44 M-0.41 -1.02 C39.94 -0.97, 202.36 1.8, 243.39 1.88" stroke="#1e1e1e" stroke-width="4" fill="none"></path></g></g><mask></mask><g stroke-linecap="round"><g transform="translate(36.24223533104146 380.402867358058) rotate(0 158.01383680960635 2.0304868580054745)"><path d="M0.4 2.47 C53.32 3.32, 265.7 3.91, 318.85 3.9 M-2.82 1.34 C49.78 1.55, 264.09 0.82, 317.7 0.16" stroke="#1e1e1e" stroke-width="4" fill="none"></path></g></g><mask></mask><g stroke-linecap="round"><g transform="translate(195.0352584674045 384.7474057334238) rotate(0 0.29539660772169896 17.231045569007904)"><path d="M-0.64 -0.57 C-0.49 5.17, -0.12 27.8, -0.09 33.74 M1.22 1.74 C1.37 7.72, -0.23 29.79, -0.6 35.04" stroke="#1e1e1e" stroke-width="4" fill="none"></path></g></g><mask></mask><g stroke-linecap="round"><g transform="translate(287.5298258568387 383.19584740723377) rotate(0 -0.3666389436722852 20.043592882621965)"><path d="M0.3 -0.73 C0.28 5.89, 0.26 32.71, 0.31 39.44 M-1.01 1.49 C-1.19 8.33, -0.66 34.25, -0.47 40.82" stroke="#1e1e1e" stroke-width="4" fill="none"></path></g></g><mask></mask><g stroke-linecap="round"><g transform="translate(108.24239802462267 384.4705431403288) rotate(0 -1.3285888554607084 17.456690440249105)"><path d="M0.03 0.29 C-0.23 6.17, -2.45 28.63, -2.69 34.34 M-1.41 -0.6 C-1.23 5.5, -0.45 29.48, -0.57 35.51" stroke="#1e1e1e" stroke-width="4" fill="none"></path></g></g><mask></mask><g stroke-linecap="round"><g transform="translate(54.35975040690852 356.83747388365515) rotate(0 141.91598253463653 -0.5516384194251884)"><path d="M-0.07 1.42 C47.96 1.28, 240.02 -2.19, 287.38 -2.53 M-3.55 -0.27 C44.38 0.16, 238.81 1.59, 286.35 0.73" stroke="#1e1e1e" stroke-width="4" fill="none"></path></g></g><mask></mask><g stroke-linecap="round"><g transform="translate(148.82124878279666 357.0189999226591) rotate(0 -0.38202396816777195 12.192458034444826)"><path d="M-0.83 0.12 C-1.01 4.17, -0.83 19.87, -0.5 24.14 M0.94 -0.86 C0.5 3.34, -1.72 21.13, -1.7 25.25" stroke="#1e1e1e" stroke-width="4" fill="none"></path></g></g><mask></mask><g stroke-linecap="round"><g transform="translate(246.7949493141653 357.9432801163512) rotate(0 -0.9954912628148236 13.04756794604171)"><path d="M0.05 0.33 C-0.17 4.53, -1.36 21.25, -1.69 25.54 M-0.59 0.03 C-0.84 4.26, -1.75 21.89, -2.04 26.07" stroke="#1e1e1e" stroke-width="4" fill="none"></path></g></g><mask></mask><g stroke-linecap="round"><g transform="translate(69.33315212527106 327.44203372451005) rotate(0 126.16276610385194 -0.5483418174216865)"><path d="M0.14 -0.3 C41.86 -0.47, 209.24 -1.1, 251.37 -1.06 M-1.25 -1.51 C40.76 -1.48, 211.3 0.48, 253.58 0.41" stroke="#1e1e1e" stroke-width="4" fill="none"></path></g></g><mask></mask><g stroke-linecap="round"><g transform="translate(108.15292026034166 330.21487430558653) rotate(0 0.6894069418618471 13.827149171122159)"><path d="M-0.33 0.67 C-0.33 5.21, 0.37 22.02, 0.28 26.46 M1.7 -0.02 C1.58 4.74, 0.31 22.87, -0.28 27.68" stroke="#1e1e1e" stroke-width="4" fill="none"></path></g></g><mask></mask><g stroke-linecap="round"><g transform="translate(195.9595386610967 331.1391544992787) rotate(0 0.4307042468065845 11.208842125604178)"><path d="M-0.55 -0.13 C-0.29 3.64, 0.63 19.78, 0.69 23.66 M1.37 -1.24 C1.61 2.71, 0.6 17.64, 0.22 21.95" stroke="#1e1e1e" stroke-width="4" fill="none"></path></g></g><mask></mask><g stroke-linecap="round"><g transform="translate(284.6904372555438 331.1391544992787) rotate(0 0.7557106801054374 11.475477882332001)"><path d="M0.96 0.57 C1.18 4.37, 1.67 18.21, 1.45 21.92 M0 -0.18 C0.13 3.85, 0.63 19.05, 0.96 23.13" stroke="#1e1e1e" stroke-width="4" fill="none"></path></g></g><mask></mask><g stroke-linecap="round"><g transform="translate(138.65416665218294 112.08474859423737) rotate(0 56.58328828410848 -1.6865819965302933)"><path d="M2.1 -0.54 C20.7 -0.61, 95.47 -2.15, 113.38 -2.4 M-0.21 -3.3 C17.99 -2.93, 92.75 -0.62, 111.97 -0.07" stroke="#1e1e1e" stroke-width="4" fill="none"></path></g></g><mask></mask><g stroke-linecap="round"><g transform="translate(140.50272703956722 106.53906743208441) rotate(0 -0.5177751949522644 -5.7667367958497096)"><path d="M-0.99 0.37 C-1.27 -1.47, -0.69 -9.81, -0.51 -11.9 M0.69 -0.49 C0.1 -2.02, -1.51 -8.56, -1.73 -10.3" stroke="#1e1e1e" stroke-width="4" fill="none"></path></g></g><mask></mask><g stroke-linecap="round"><g transform="translate(250.49207008893399 108.38762781946872) rotate(0 0.01041630867683807 -5.862730622888989)"><path d="M0.75 -0.39 C0.67 -2.44, 0.75 -9.81, 0.61 -11.33 M-0.32 -1.64 C-0.68 -3.68, -0.93 -8.76, -0.5 -10.41" stroke="#1e1e1e" stroke-width="4" fill="none"></path></g></g><mask></mask><g stroke-linecap="round"><g transform="translate(137.72988645849074 94.52342491408638) rotate(0 20.74157148341473 -0.03734761116191976)"><path d="M-1.06 1.04 C6.2 0.75, 35.43 -0.92, 42.54 -1.11 M0.59 0.54 C7.78 0.38, 34.37 0.75, 41.61 0.32" stroke="#1e1e1e" stroke-width="4" fill="none"></path></g></g><mask></mask><g stroke-linecap="round"><g transform="translate(250.49207008893399 92.67486452670204) rotate(0 -22.402810515614533 -1.1417011941430033)"><path d="M-0.74 -0.03 C-8.12 -0.48, -37.68 -1.82, -45.37 -2.25 M1.07 -1.09 C-6.3 -1.41, -38.3 -0.82, -45.88 -0.93" stroke="#1e1e1e" stroke-width="4" fill="none"></path></g></g><mask></mask><g stroke-linecap="round"><g transform="translate(179.32249517463782 91.7505843330099) rotate(0 1.0411505313767293 -38.61334242183803)"><path d="M-1.22 -1.67 C-1.39 -14.81, 0.11 -67.55, 0.02 -80.82 M3.32 3.59 C2.92 -8.92, 0.35 -63.71, -0.7 -77.41" stroke="#1e1e1e" stroke-width="4" fill="none"></path></g></g><mask></mask><g stroke-linecap="round"><g transform="translate(179.32249517463782 13.186767869176506) rotate(0 11.203553013066852 -0.6381280188818295)"><path d="M0.6 -1.2 C4.5 -1.68, 19.18 -2.2, 22.95 -2.02 M-0.54 0.78 C3.23 0.33, 18.08 -0.59, 21.91 -1.06" stroke="#1e1e1e" stroke-width="4" fill="none"></path></g></g><mask></mask><g stroke-linecap="round"><g transform="translate(203.35378021063394 11.338207481792196) rotate(0 1.6002497312837534 40.917906411703754)"><path d="M-0.28 -0.19 C0.15 13.67, 3.01 68.16, 3.48 82.17 M1.77 -1.34 C1.95 12.72, 1.91 69.3, 2.42 83.17" stroke="#1e1e1e" stroke-width="4" fill="none"></path></g></g><mask></mask><g stroke-linecap="round"><g transform="translate(140.50272703956722 111.1604684005452) rotate(0 9.131700485322767 3.8573268372268785)"><path d="M0.45 -0.47 C3.52 0.88, 15.26 6.39, 18.25 7.77 M0.02 0.47 C3.01 1.9, 14.7 6.91, 17.69 8.19" stroke="#1e1e1e" stroke-width="2" fill="none"></path></g></g><mask></mask><g stroke-linecap="round"><g transform="translate(250.71401232640522 110.08416991033806) rotate(0 -6.58093247458072 5.621690310410429)"><path d="M0 0 C-3.19 3.3, -7.47 6.38, -13.16 11.24 M0 0 C-2.61 2.32, -5.67 5.1, -13.16 11.24" stroke="#1e1e1e" stroke-width="4" fill="none"></path></g></g><mask></mask><g stroke-linecap="round"><g transform="translate(158.06405071971818 118.55470995008247) rotate(0 19.283161458285917 -0.4151937278276847)"><path d="M-0.06 0.1 C6.42 -0.02, 31.91 -0.76, 38.33 -0.93 M-0.75 -0.33 C5.93 -0.34, 32.86 -0.23, 39.32 -0.23" stroke="#1e1e1e" stroke-width="4" fill="none"></path></g></g><mask></mask><g stroke-linecap="round"><g transform="translate(238.47642757093587 119.47899014377461) rotate(0 -27.659846223789884 -0.6630538919298345)"><path d="M1.54 1.58 C-7.43 0.94, -45.55 -2.53, -54.59 -2.91 M-1.07 -0.03 C-10.34 -0.45, -48.12 -0.78, -56.86 -0.36" stroke="#1e1e1e" stroke-width="4" fill="none"></path></g></g><mask></mask><g stroke-linecap="round"><g transform="translate(149.09912964252987 336.9694556210623) rotate(0 -0.1740800076854896 16.122560538907607)"><path d="M0.07 0.06 C0.05 5.44, 0.21 27.25, 0.22 32.64 M-0.56 -0.39 C-0.63 4.81, -0.03 26.24, 0.05 31.8" stroke="#1e1e1e" stroke-width="4" fill="none"></path></g></g><mask></mask><g stroke-linecap="round"><g transform="translate(245.3673904177578 336.3743828753324) rotate(0 -0.11192239976190876 17.828616650359663)"><path d="M0.03 0.28 C0.14 6.29, 0.27 29.85, 0.39 35.72 M-0.62 -0.06 C-0.56 5.83, -0.3 28.88, -0.09 34.91" stroke="#1e1e1e" stroke-width="4" fill="none"></path></g></g><mask></mask><g stroke-linecap="round"><g transform="translate(148.9716715925823 367.73615174690445) rotate(0 47.49745744841343 -14.65455334091294)"><path d="M-1.13 -0.8 C14.88 -5.76, 79.77 -25.85, 96.13 -30.7 M0.47 1.4 C16.28 -3.37, 78.95 -24.7, 94.95 -29.74" stroke="#1e1e1e" stroke-width="4" fill="none"></path></g></g><mask></mask><g stroke-linecap="round"><g transform="translate(149.8927410414015 338.76163465333735) rotate(0 47.4668660375726 16.885477535220275)"><path d="M-0.11 -0.62 C16.11 4.71, 80.35 27.35, 96.56 32.8 M-1.63 1.66 C14.54 7.14, 79.43 29.16, 95.86 34.39" stroke="#1e1e1e" stroke-width="4" fill="none"></path></g></g><mask></mask><g transform="translate(153.7200791621617 358.5566683499971) rotate(0 16.488288691950345 -6.049711044496746)" stroke="none"><path fill="#1e1e1e" d="M -0.30,-9.58 Q -0.30,-9.58 1.30,-9.84 2.90,-10.10 3.28,-7.65 3.67,-5.21 1.46,-5.46 -0.74,-5.71 1.41,-6.41 3.56,-7.10 3.87,-10.16 4.18,-13.22 6.84,-13.26 9.49,-13.29 12.13,-13.63 14.76,-13.96 17.17,-14.03 19.58,-14.10 22.29,-13.38 25.00,-12.65 27.78,-11.45 30.57,-10.24 32.07,-11.03 33.58,-11.82 34.47,-11.71 35.36,-11.59 36.19,-11.27 37.03,-10.95 37.77,-10.44 38.50,-9.93 39.09,-9.25 39.68,-8.58 40.10,-7.78 40.51,-6.99 40.72,-6.12 40.93,-5.25 40.93,-4.35 40.92,-3.45 40.70,-2.59 40.48,-1.72 40.06,-0.92 39.64,-0.13 39.05,0.52 38.45,1.19 37.71,1.70 36.97,2.20 36.13,2.52 35.29,2.83 34.40,2.94 33.51,3.04 31.29,2.69 29.07,2.34 26.33,1.71 23.60,1.08 21.13,0.84 18.66,0.59 16.40,0.27 14.13,-0.03 11.63,-0.42 9.14,-0.80 6.86,-2.97 4.57,-5.13 5.88,-6.88 7.18,-8.62 10.79,-9.24 14.40,-9.86 15.64,-9.86 16.88,-9.87 18.05,-9.47 19.23,-9.08 20.21,-8.33 21.20,-7.59 21.90,-6.56 22.60,-5.54 22.93,-4.35 23.26,-3.15 23.20,-1.92 23.14,-0.68 22.68,0.46 22.22,1.61 21.43,2.56 20.63,3.51 19.57,4.15 18.51,4.79 17.30,5.06 16.09,5.33 14.86,5.20 13.62,5.06 12.50,4.55 11.37,4.03 10.47,3.18 9.57,2.33 8.99,1.24 8.41,0.14 8.20,-1.07 8.00,-2.29 8.20,-3.51 8.39,-4.74 8.97,-5.83 9.55,-6.93 10.45,-7.78 11.34,-8.63 12.47,-9.16 13.59,-9.68 14.82,-9.82 16.05,-9.95 17.26,-9.69 18.47,-9.43 19.54,-8.79 20.60,-8.15 21.40,-7.21 22.21,-6.27 22.67,-5.12 23.13,-3.97 23.20,-2.73 23.27,-1.50 22.94,-0.30 22.61,0.88 21.92,1.91 21.22,2.94 20.24,3.69 19.26,4.44 18.08,4.84 16.91,5.24 16.91,5.24 16.91,5.24 14.53,5.19 12.15,5.14 8.94,6.21 5.72,7.29 3.32,7.34 0.92,7.40 -1.62,5.76 -4.17,4.13 -5.61,-0.51 -7.04,-5.15 -5.34,-7.96 -3.65,-10.77 -1.28,-12.67 1.08,-14.57 4.61,-15.29 8.13,-16.02 10.69,-15.65 13.25,-15.28 16.05,-14.83 18.85,-14.38 21.13,-14.13 23.40,-13.88 26.17,-13.32 28.94,-12.76 31.26,-12.29 33.58,-11.82 34.47,-11.71 35.36,-11.59 36.19,-11.27 37.03,-10.95 37.77,-10.44 38.50,-9.93 39.09,-9.25 39.68,-8.58 40.10,-7.78 40.51,-6.99 40.72,-6.12 40.93,-5.25 40.93,-4.35 40.92,-3.45 40.70,-2.59 40.48,-1.72 40.06,-0.93 39.64,-0.13 39.05,0.52 38.45,1.19 37.71,1.70 36.97,2.20 36.13,2.52 35.29,2.83 34.40,2.93 33.51,3.04 32.70,3.19 31.88,3.34 29.65,3.20 27.43,3.07 24.99,1.97 22.56,0.87 19.80,0.07 17.05,-0.71 13.25,-0.04 9.46,0.62 7.02,0.52 4.57,0.42 1.82,-0.33 -0.93,-1.08 -2.83,-2.38 -4.74,-3.68 -6.00,-7.56 -7.26,-11.44 -6.09,-13.80 -4.91,-16.16 -2.86,-16.92 -0.80,-17.69 2.38,-16.84 5.58,-15.99 7.88,-14.14 10.18,-12.29 11.19,-8.93 12.19,-5.58 10.75,-3.51 9.30,-1.45 6.62,-0.62 3.95,0.19 2.32,0.26 0.70,0.33 0.10,0.31 -0.50,0.30 -1.08,0.15 -1.66,-0.00 -2.18,-0.29 -2.71,-0.58 -3.15,-0.99 -3.59,-1.39 -3.92,-1.90 -4.26,-2.40 -4.46,-2.96 -4.66,-3.53 -4.72,-4.13 -4.78,-4.72 -4.70,-5.32 -4.61,-5.91 -4.39,-6.47 -4.16,-7.03 -3.81,-7.52 -3.46,-8.00 -3.00,-8.39 -2.54,-8.78 -2.01,-9.05 -1.47,-9.32 -0.88,-9.45 -0.30,-9.58 -0.30,-9.58 L -0.30,-9.58 Z"></path></g><g transform="translate(220.62232593355787 354.35670804646014) rotate(0 6.0078212589990585 -0.4621400968460705)" stroke="none"><path fill="#1e1e1e" d="M 1.84,4.61 Q 1.84,4.61 0.55,5.24 -0.73,5.86 -2.62,1.44 -4.51,-2.97 -6.68,-2.43 -8.84,-1.89 -6.43,-3.28 -4.02,-4.67 -1.63,-4.88 0.76,-5.09 4.32,-4.56 7.87,-4.04 9.72,-2.57 11.57,-1.10 12.13,4.12 12.70,9.34 10.07,10.29 7.44,11.24 5.22,11.28 3.00,11.31 -0.40,10.22 -3.81,9.14 -5.90,7.21 -7.98,5.28 -8.88,1.26 -9.78,-2.75 -7.17,-4.83 -4.55,-6.91 -1.33,-6.30 1.88,-5.69 4.99,-4.65 8.10,-3.60 8.92,-5.62 9.74,-7.63 11.12,-9.25 12.51,-10.87 18.30,-11.07 24.10,-11.28 24.98,-9.23 25.86,-7.18 25.96,-4.86 26.05,-2.55 25.30,0.23 24.55,3.02 23.70,2.34 22.85,1.66 23.52,2.29 24.19,2.92 24.69,3.70 25.19,4.47 25.49,5.34 25.78,6.21 25.87,7.13 25.95,8.05 25.81,8.96 25.66,9.87 25.31,10.72 24.96,11.56 24.41,12.30 23.86,13.04 23.15,13.63 22.44,14.22 21.62,14.62 20.79,15.02 19.89,15.21 18.99,15.40 18.07,15.37 17.15,15.34 16.26,15.09 15.37,14.85 14.57,14.39 13.77,13.94 12.11,11.59 10.44,9.25 9.32,6.36 8.20,3.48 7.67,0.87 7.15,-1.73 8.55,0.11 9.95,1.97 8.03,2.93 6.12,3.89 3.50,4.79 0.89,5.68 0.92,5.60 0.96,5.51 0.11,5.89 -0.73,6.27 -1.64,6.44 -2.56,6.60 -3.49,6.55 -4.42,6.49 -5.30,6.21 -6.19,5.93 -6.99,5.45 -7.78,4.97 -8.44,4.31 -9.10,3.65 -9.58,2.85 -10.06,2.05 -10.33,1.16 -10.61,0.27 -10.66,-0.65 -10.72,-1.58 -10.55,-2.49 -10.38,-3.41 -9.99,-4.25 -9.61,-5.10 -9.03,-5.83 -8.46,-6.57 -7.72,-7.14 -6.99,-7.71 -2.96,-7.59 1.05,-7.46 2.99,-8.92 4.92,-10.38 7.19,-10.44 9.45,-10.50 11.57,-11.15 13.69,-11.80 13.18,-7.24 12.67,-2.68 11.28,-4.80 9.90,-6.92 9.59,-7.78 9.28,-8.65 9.35,-9.58 9.43,-10.51 9.72,-11.40 10.02,-12.29 10.52,-13.08 11.02,-13.87 11.70,-14.52 12.37,-15.17 13.18,-15.64 13.99,-16.11 14.89,-16.37 15.79,-16.63 16.72,-16.66 17.66,-16.70 18.58,-16.51 19.49,-16.33 20.34,-15.93 21.19,-15.53 21.91,-14.93 22.64,-14.34 23.20,-13.59 23.76,-12.85 24.13,-11.98 24.49,-11.12 24.64,-10.20 24.79,-9.28 23.44,-6.40 22.08,-3.52 20.11,-1.94 18.13,-0.36 16.19,0.95 14.24,2.27 11.48,3.89 8.71,5.50 6.50,6.06 4.29,6.62 0.56,6.88 -3.15,7.13 -6.16,5.66 -9.16,4.19 -6.83,5.40 -4.49,6.61 -5.32,6.19 -6.14,5.77 -6.84,5.16 -7.54,4.56 -8.07,3.81 -8.61,3.05 -8.94,2.20 -9.28,1.34 -9.41,0.42 -9.53,-0.48 -9.43,-1.40 -9.33,-2.32 -9.01,-3.19 -8.70,-4.05 -8.18,-4.82 -7.67,-5.59 -6.98,-6.21 -6.30,-6.83 -5.49,-7.27 -4.67,-7.71 -3.78,-7.94 -2.89,-8.17 -1.96,-8.18 -1.04,-8.20 -0.14,-7.99 0.75,-7.78 1.68,-7.28 2.62,-6.78 3.49,-5.90 4.37,-5.02 4.91,-3.90 5.46,-2.79 5.62,-1.56 5.78,-0.33 5.54,0.87 5.30,2.09 4.68,3.16 4.07,4.24 3.14,5.06 2.21,5.88 1.07,6.37 -0.06,6.85 -1.29,6.95 -2.53,7.04 -3.73,6.74 -4.93,6.43 -5.97,5.76 -7.01,5.08 -7.78,4.11 -8.56,3.14 -8.98,1.98 -9.40,0.81 -9.43,-0.42 -9.45,-1.65 -9.08,-2.84 -8.71,-4.02 -7.98,-5.02 -7.26,-6.03 -6.25,-6.74 -5.24,-7.46 -4.05,-7.82 -2.86,-8.18 -1.62,-8.14 -0.39,-8.10 0.77,-7.66 1.93,-7.23 2.89,-6.45 3.85,-5.67 4.51,-4.62 5.17,-3.57 5.47,-2.37 5.76,-1.16 5.65,0.06 5.55,1.30 5.05,2.43 4.55,3.57 3.72,4.49 2.89,5.41 1.81,6.01 0.72,6.61 -0.48,6.84 -1.70,7.07 -2.93,6.89 -4.16,6.72 -4.32,6.66 -4.49,6.61 -5.32,6.19 -6.14,5.77 -6.84,5.17 -7.54,4.56 -8.07,3.81 -8.61,3.06 -8.94,2.20 -9.28,1.34 -9.40,0.42 -9.53,-0.48 -9.43,-1.40 -9.33,-2.32 -9.01,-3.19 -8.70,-4.05 -8.18,-4.82 -7.67,-5.59 -6.98,-6.21 -6.30,-6.83 -5.49,-7.27 -4.68,-7.71 -3.78,-7.94 -2.89,-8.17 -1.96,-8.18 -1.04,-8.20 -0.14,-7.99 0.75,-7.78 1.52,-6.48 2.28,-5.18 0.20,-6.26 -1.87,-7.33 0.41,-7.18 2.69,-7.03 4.75,-9.15 6.81,-11.27 9.17,-12.46 11.53,-13.66 10.40,-11.15 9.28,-8.65 9.35,-9.58 9.43,-10.51 9.72,-11.40 10.02,-12.29 10.52,-13.08 11.02,-13.87 11.69,-14.52 12.37,-15.17 13.18,-15.64 13.99,-16.10 14.89,-16.37 15.79,-16.63 16.72,-16.66 17.66,-16.70 18.58,-16.52 19.49,-16.33 20.34,-15.93 21.18,-15.53 21.91,-14.93 22.63,-14.34 23.20,-13.59 23.76,-12.85 24.13,-11.99 24.49,-11.12 24.64,-10.20 24.79,-9.28 24.42,-9.20 24.05,-9.12 22.52,-4.14 20.98,0.83 18.51,2.13 16.03,3.43 12.77,4.20 9.51,4.96 7.24,5.11 4.97,5.26 1.64,6.02 -1.68,6.78 -4.24,6.13 -6.81,5.47 -2.92,5.49 0.96,5.51 0.11,5.89 -0.73,6.27 -1.64,6.44 -2.56,6.60 -3.49,6.55 -4.41,6.49 -5.30,6.21 -6.19,5.93 -6.99,5.45 -7.78,4.97 -8.44,4.31 -9.10,3.65 -9.58,2.85 -10.06,2.05 -10.33,1.16 -10.61,0.27 -10.66,-0.65 -10.72,-1.57 -10.55,-2.49 -10.38,-3.41 -9.99,-4.25 -9.61,-5.10 -9.03,-5.83 -8.46,-6.56 -7.72,-7.14 -6.99,-7.71 -6.49,-7.85 -5.98,-7.98 -3.69,-8.90 -1.39,-9.81 1.62,-10.43 4.63,-11.05 6.82,-11.68 9.01,-12.32 11.15,-12.27 13.28,-12.23 15.92,-11.43 18.56,-10.63 20.18,-6.90 21.80,-3.16 22.33,-0.75 22.85,1.66 23.52,2.29 24.19,2.92 24.69,3.70 25.19,4.47 25.49,5.34 25.78,6.21 25.86,7.13 25.95,8.05 25.81,8.96 25.66,9.86 25.31,10.71 24.96,11.56 24.41,12.30 23.86,13.04 23.15,13.63 22.45,14.22 21.62,14.62 20.79,15.02 19.89,15.21 18.99,15.40 18.07,15.37 17.15,15.34 16.26,15.09 15.37,14.85 14.57,14.39 13.77,13.94 12.48,11.56 11.19,9.19 10.59,5.47 9.99,1.75 11.00,-0.61 12.01,-2.98 17.52,-2.68 23.04,-2.38 22.83,-0.23 22.62,1.91 21.07,4.74 19.51,7.56 17.55,8.71 15.58,9.86 13.44,10.46 11.30,11.05 9.01,10.95 6.71,10.85 4.69,10.15 2.67,9.45 0.39,8.27 -1.88,7.08 -0.07,5.40 1.73,3.71 1.55,0.11 1.36,-3.48 3.29,-2.23 5.22,-0.98 4.08,3.05 2.94,7.08 0.56,6.12 -1.81,5.16 -4.19,5.85 -6.58,6.55 -8.58,4.07 -10.59,1.58 -7.58,-1.07 -4.57,-3.74 -3.21,-4.18 -1.84,-4.61 -1.26,-4.77 -0.68,-4.92 -0.08,-4.93 0.51,-4.94 1.09,-4.81 1.68,-4.68 2.21,-4.41 2.75,-4.14 3.20,-3.75 3.66,-3.36 4.01,-2.87 4.36,-2.39 4.58,-1.83 4.80,-1.27 4.89,-0.68 4.97,-0.08 4.91,0.50 4.85,1.10 4.64,1.66 4.44,2.23 4.11,2.73 3.78,3.23 3.34,3.63 2.89,4.04 2.37,4.33 1.84,4.61 1.84,4.61 L 1.84,4.61 Z"></path></g><g transform="translate(207.86614402591664 351.8534293437448) rotate(0 -2.77284058107648 1.38642029053824)" stroke="none"><path fill="#1e1e1e" d="M 1.34,2.02 Q 1.34,2.02 0.57,2.59 -0.20,3.17 -1.27,3.82 -2.34,4.47 -2.79,4.65 -3.24,4.83 -3.53,4.98 -3.83,5.14 -4.16,5.22 -4.48,5.30 -4.82,5.30 -5.15,5.30 -5.48,5.22 -5.80,5.14 -6.10,4.98 -6.39,4.83 -6.65,4.61 -6.90,4.39 -7.09,4.11 -7.28,3.83 -7.40,3.52 -7.52,3.21 -7.56,2.88 -7.60,2.54 -7.56,2.21 -7.52,1.88 -7.40,1.57 -7.28,1.25 -7.09,0.98 -6.90,0.70 -6.65,0.48 -6.40,0.26 -4.83,-0.48 -3.27,-1.23 -2.87,-1.36 -2.46,-1.50 -2.04,-1.50 -1.62,-1.50 -1.22,-1.36 -0.81,-1.22 -0.48,-0.97 -0.14,-0.71 0.09,-0.36 0.32,-0.01 0.44,0.39 0.55,0.80 0.52,1.22 0.50,1.65 0.34,2.04 0.19,2.43 -0.08,2.75 -0.35,3.08 -0.72,3.29 -1.08,3.51 -1.50,3.60 -1.91,3.69 -2.33,3.65 -2.75,3.60 -3.14,3.42 -3.52,3.24 -3.83,2.95 -4.13,2.66 -4.33,2.28 -4.53,1.91 -4.60,1.49 -4.66,1.07 -4.59,0.65 -4.53,0.24 -4.33,-0.13 -4.13,-0.50 -3.82,-0.79 -3.51,-1.08 -3.13,-1.26 -2.74,-1.44 -2.32,-1.48 -1.90,-1.53 -1.48,-1.44 -1.07,-1.34 -0.71,-1.12 -0.35,-0.91 -0.07,-0.58 0.19,-0.26 0.35,0.13 0.50,0.52 0.53,0.94 0.55,1.37 0.43,1.77 0.32,2.18 0.08,2.53 -0.15,2.88 -0.49,3.14 -0.82,3.39 -0.82,3.39 -0.82,3.39 -2.03,4.11 -3.24,4.82 -3.53,4.98 -3.83,5.14 -4.16,5.22 -4.48,5.30 -4.82,5.30 -5.15,5.30 -5.48,5.22 -5.80,5.14 -6.10,4.98 -6.39,4.83 -6.65,4.61 -6.90,4.39 -7.09,4.11 -7.28,3.83 -7.40,3.52 -7.52,3.21 -7.56,2.88 -7.60,2.54 -7.56,2.21 -7.52,1.88 -7.40,1.57 -7.28,1.25 -7.09,0.98 -6.90,0.70 -6.65,0.48 -6.40,0.26 -5.88,0.12 -5.35,-0.00 -4.16,-0.52 -2.98,-1.04 -2.16,-1.53 -1.34,-2.02 -1.08,-2.15 -0.82,-2.28 -0.53,-2.35 -0.25,-2.41 0.03,-2.41 0.33,-2.40 0.61,-2.33 0.89,-2.25 1.15,-2.11 1.41,-1.97 1.62,-1.78 1.84,-1.58 2.00,-1.33 2.17,-1.09 2.27,-0.81 2.36,-0.54 2.40,-0.25 2.43,0.03 2.39,0.32 2.35,0.62 2.24,0.89 2.13,1.16 1.96,1.40 1.79,1.64 1.57,1.83 1.34,2.02 1.34,2.02 L 1.34,2.02 Z"></path></g><g stroke-linecap="round" transform="translate(142.35128742695161 210.058449125606) rotate(0 55.456811621529425 35.58478745714805)"><path d="M31.81 3.99 C39.93 0.97, 52.8 0.35, 62.51 0.89 C72.22 1.44, 82.45 3.17, 90.08 7.26 C97.7 11.34, 105.1 19.04, 108.25 25.38 C111.41 31.73, 111.74 39.3, 108.99 45.3 C106.24 51.3, 99.24 57.21, 91.75 61.39 C84.27 65.57, 73.8 69.27, 64.1 70.38 C54.4 71.49, 42.68 70.44, 33.55 68.05 C24.43 65.66, 14.8 61.29, 9.33 56.05 C3.85 50.82, 0.73 43.1, 0.69 36.65 C0.65 30.2, 3.61 22.94, 9.1 17.38 C14.59 11.82, 28.92 5.62, 33.63 3.3 C38.35 0.98, 36.85 2.98, 37.4 3.45 M67.55 0.14 C76.86 1.32, 89.25 6.57, 96.15 11.29 C103.06 16.01, 106.94 22.48, 108.97 28.49 C111 34.49, 111.98 41.34, 108.32 47.33 C104.65 53.32, 95.39 60.69, 86.99 64.43 C78.6 68.16, 67.99 69.32, 57.96 69.72 C47.94 70.13, 35.35 69.79, 26.85 66.87 C18.35 63.96, 11.49 57.84, 6.94 52.21 C2.39 46.58, -1.42 39.51, -0.44 33.09 C0.54 26.67, 6.34 18.73, 12.84 13.7 C19.33 8.67, 29.32 5.24, 38.55 2.91 C47.79 0.57, 63.54 -0.08, 68.27 -0.33 C72.99 -0.59, 67.12 0.64, 66.91 1.38" stroke="#1e1e1e" stroke-width="4" fill="none"></path></g><g transform="translate(197.73752965296495 219.41200785306026) rotate(0 -1.7737023020573872 27.07682001178982)" stroke="none"><path fill="#1e1e1e" d="M 4.64,1.42 Q 4.64,1.42 4.38,2.62 4.12,3.82 3.51,6.19 2.89,8.56 2.93,11.05 2.97,13.55 3.11,16.10 3.25,18.66 3.27,20.88 3.29,23.10 3.34,25.34 3.39,27.57 3.48,29.83 3.56,32.08 3.76,34.80 3.96,37.52 4.21,39.72 4.46,41.91 4.97,44.13 5.47,46.34 5.97,48.56 6.46,50.79 6.81,51.95 7.16,53.12 7.12,54.34 7.08,55.56 6.66,56.70 6.23,57.85 5.46,58.80 4.69,59.74 3.66,60.39 2.63,61.05 1.44,61.33 0.26,61.62 -0.95,61.52 -2.16,61.41 -3.28,60.92 -4.40,60.44 -5.30,59.62 -6.21,58.80 -6.80,57.73 -7.40,56.67 -7.62,55.47 -7.85,54.27 -7.67,53.06 -7.50,51.85 -6.96,50.76 -6.41,49.67 -5.54,48.81 -4.67,47.95 -3.58,47.42 -2.48,46.88 -1.27,46.72 -0.06,46.56 1.13,46.80 2.32,47.04 3.38,47.64 4.44,48.25 5.25,49.16 6.06,50.07 6.54,51.20 7.01,52.32 7.11,53.54 7.20,54.75 6.90,55.94 6.60,57.12 5.93,58.14 5.27,59.17 4.32,59.93 3.36,60.69 2.21,61.10 1.07,61.52 -0.14,61.54 -1.36,61.57 -2.53,61.21 -3.69,60.84 -4.68,60.12 -5.67,59.41 -6.37,58.41 -7.08,57.42 -7.08,57.42 -7.08,57.42 -7.70,54.84 -8.32,52.26 -8.58,50.02 -8.83,47.79 -9.45,45.70 -10.07,43.61 -10.25,40.83 -10.43,38.04 -10.54,35.06 -10.65,32.08 -10.57,29.83 -10.49,27.57 -10.34,25.30 -10.19,23.03 -9.97,20.78 -9.75,18.53 -9.42,16.34 -9.09,14.15 -8.55,11.71 -8.02,9.27 -7.40,7.10 -6.79,4.94 -6.17,2.89 -5.55,0.85 -5.09,-0.28 -4.64,-1.42 -4.40,-1.95 -4.16,-2.49 -3.80,-2.95 -3.44,-3.41 -2.98,-3.78 -2.53,-4.14 -1.99,-4.38 -1.46,-4.63 -0.88,-4.73 -0.31,-4.84 0.27,-4.81 0.85,-4.78 1.41,-4.60 1.97,-4.43 2.47,-4.13 2.97,-3.83 3.39,-3.42 3.81,-3.01 4.11,-2.51 4.42,-2.01 4.59,-1.45 4.77,-0.89 4.81,-0.31 4.84,0.27 4.74,0.84 4.64,1.42 4.64,1.42 L 4.64,1.42 Z"></path></g><g transform="translate(198.26484655357655 219.75046810320768) rotate(0 1.7737023020573872 27.07682001178982)" stroke="none"><path fill="#1e1e1e" d="M 4.64,-1.42 Q 4.64,-1.42 5.09,-0.28 5.55,0.85 6.17,2.89 6.79,4.94 7.40,7.10 8.02,9.27 8.55,11.71 9.09,14.15 9.42,16.34 9.75,18.53 9.97,20.78 10.19,23.03 10.34,25.30 10.49,27.57 10.57,29.83 10.65,32.08 10.54,35.06 10.43,38.04 10.25,40.83 10.07,43.61 9.45,45.70 8.83,47.79 8.58,50.02 8.32,52.26 7.70,54.84 7.08,57.42 6.37,58.41 5.67,59.41 4.68,60.13 3.69,60.84 2.53,61.21 1.36,61.57 0.14,61.54 -1.07,61.52 -2.22,61.10 -3.36,60.69 -4.32,59.93 -5.27,59.17 -5.94,58.14 -6.60,57.12 -6.90,55.93 -7.20,54.75 -7.11,53.54 -7.01,52.32 -6.54,51.20 -6.06,50.07 -5.25,49.16 -4.44,48.25 -3.38,47.64 -2.32,47.04 -1.12,46.80 0.06,46.56 1.27,46.72 2.48,46.88 3.58,47.42 4.68,47.95 5.54,48.81 6.41,49.67 6.96,50.76 7.50,51.85 7.68,53.06 7.85,54.27 7.62,55.47 7.40,56.67 6.80,57.73 6.21,58.80 5.30,59.62 4.40,60.44 3.28,60.93 2.16,61.41 0.95,61.52 -0.26,61.62 -1.45,61.33 -2.63,61.05 -3.66,60.39 -4.69,59.74 -5.46,58.79 -6.23,57.85 -6.66,56.70 -7.09,55.56 -7.12,54.34 -7.16,53.12 -6.81,51.95 -6.46,50.78 -6.46,50.78 -6.46,50.79 -5.97,48.56 -5.47,46.34 -4.97,44.13 -4.46,41.91 -4.21,39.72 -3.96,37.52 -3.76,34.80 -3.56,32.08 -3.48,29.83 -3.39,27.57 -3.34,25.34 -3.29,23.10 -3.27,20.88 -3.25,18.66 -3.11,16.10 -2.97,13.55 -2.93,11.05 -2.89,8.56 -3.51,6.19 -4.12,3.82 -4.38,2.62 -4.64,1.42 -4.74,0.84 -4.84,0.27 -4.81,-0.31 -4.77,-0.89 -4.59,-1.45 -4.42,-2.01 -4.11,-2.51 -3.80,-3.01 -3.39,-3.42 -2.97,-3.83 -2.47,-4.13 -1.97,-4.43 -1.41,-4.60 -0.85,-4.78 -0.27,-4.81 0.31,-4.84 0.88,-4.73 1.46,-4.63 1.99,-4.38 2.53,-4.14 2.98,-3.78 3.44,-3.41 3.80,-2.95 4.16,-2.49 4.40,-1.95 4.64,-1.42 4.64,-1.42 L 4.64,-1.42 Z"></path></g><g transform="translate(198.216908653521 232.61195760880787) rotate(0 -0.3355653003892485 14.72302088141069)" stroke="none"><path fill="#1e1e1e" d="M 4.86,1.29 Q 4.86,1.29 4.50,2.97 4.15,4.65 3.81,6.90 3.46,9.15 3.44,11.31 3.41,13.47 3.72,15.88 4.03,18.28 2.51,16.09 0.99,13.90 -3.30,15.80 -7.59,17.70 -7.98,15.05 -8.38,12.40 -8.45,10.17 -8.52,7.94 -8.58,5.71 -8.64,3.49 -8.75,1.32 -8.85,-0.84 -8.63,-3.50 -8.41,-6.17 -6.10,-8.96 -3.80,-11.75 -4.92,-9.93 -6.05,-8.11 -6.91,-7.25 -7.78,-6.39 -7.81,-7.29 -7.83,-8.18 -7.65,-9.05 -7.46,-9.92 -7.07,-10.73 -6.68,-11.53 -6.10,-12.22 -5.53,-12.90 -4.81,-13.43 -4.09,-13.96 -3.27,-14.30 -2.44,-14.64 -1.56,-14.78 -0.68,-14.91 0.20,-14.83 1.09,-14.75 1.94,-14.46 2.78,-14.17 3.53,-13.68 4.28,-13.20 4.89,-12.55 5.50,-11.90 5.94,-11.12 6.38,-10.34 6.62,-9.48 6.86,-8.62 4.33,-11.53 1.80,-14.44 3.34,-12.59 4.88,-10.74 6.08,-8.59 7.27,-6.44 7.52,-4.27 7.77,-2.09 8.00,0.23 8.24,2.55 8.72,4.79 9.21,7.02 9.45,9.36 9.70,11.69 9.72,13.84 9.74,15.99 9.76,18.16 9.78,20.33 9.71,22.85 9.65,25.36 9.19,28.22 8.73,31.08 8.39,31.79 8.05,32.50 7.46,33.24 6.87,33.98 6.13,34.55 5.38,35.12 4.51,35.50 3.65,35.88 2.72,36.04 1.79,36.20 0.85,36.14 -0.08,36.07 -0.97,35.78 -1.87,35.49 -2.67,35.00 -3.47,34.50 -4.13,33.83 -4.79,33.15 -5.27,32.34 -5.75,31.53 -6.02,30.63 -6.30,29.73 -6.34,28.78 -6.39,27.84 -6.21,26.92 -6.03,25.99 -5.64,25.14 -5.24,24.28 -5.77,27.02 -6.29,29.76 -6.55,27.61 -6.80,25.46 -7.01,23.12 -7.22,20.78 -7.43,18.59 -7.65,16.41 -7.98,14.05 -8.31,11.69 -9.03,10.00 -9.76,8.32 -9.79,7.37 -9.81,6.42 -9.60,5.49 -9.39,4.56 -8.97,3.71 -8.55,2.86 -7.93,2.13 -7.32,1.41 -6.55,0.85 -5.78,0.29 -4.90,-0.06 -4.02,-0.41 -3.08,-0.55 -2.13,-0.69 -1.19,-0.59 -0.24,-0.50 0.65,-0.18 1.54,0.12 2.34,0.65 3.13,1.17 3.78,1.87 4.42,2.56 4.89,3.39 5.35,4.23 5.60,5.14 5.84,6.06 5.80,8.30 5.75,10.53 5.77,12.75 5.78,14.96 5.79,17.17 5.79,19.37 5.87,21.76 5.95,24.15 6.51,26.23 7.08,28.32 7.55,30.56 8.02,32.81 7.56,34.93 7.09,37.06 4.59,39.25 2.09,41.44 -2.36,38.94 -6.81,36.44 -7.66,34.38 -8.50,32.32 -6.93,33.77 -5.35,35.23 -7.35,32.27 -9.34,29.32 -8.99,27.16 -8.63,25.00 -7.37,23.19 -6.10,21.37 -4.11,20.61 -2.12,19.84 0.42,21.07 2.97,22.30 4.93,24.56 6.88,26.82 5.40,24.54 3.93,22.26 5.31,23.92 6.70,25.57 7.18,28.11 7.67,30.66 5.78,27.92 3.89,25.17 -0.46,26.35 -4.83,27.54 -5.89,25.53 -6.95,23.51 -6.81,20.80 -6.67,18.08 -6.52,15.87 -6.36,13.65 -6.25,11.38 -6.14,9.10 -6.14,6.88 -6.15,4.66 -6.54,2.33 -6.92,-0.00 -6.92,-0.95 -6.92,-1.90 -6.69,-2.83 -6.46,-3.75 -6.02,-4.59 -5.57,-5.43 -4.94,-6.15 -4.31,-6.86 -3.53,-7.40 -2.74,-7.94 -1.85,-8.27 -0.96,-8.61 -0.01,-8.72 0.92,-8.83 1.87,-8.72 2.81,-8.60 3.70,-8.26 4.59,-7.92 5.37,-7.38 6.16,-6.84 6.79,-6.12 7.42,-5.41 7.86,-4.57 8.30,-3.72 8.52,-2.80 8.75,-1.87 8.27,0.48 7.80,2.84 7.90,5.32 8.00,7.80 7.82,10.26 7.65,12.72 7.52,14.91 7.40,17.10 7.28,19.35 7.16,21.59 6.86,24.81 6.57,28.02 6.33,30.17 6.10,32.32 3.61,34.50 1.12,36.68 2.80,34.63 4.47,32.58 5.33,29.90 6.20,27.22 6.72,29.54 7.24,31.85 7.53,34.48 7.82,37.11 7.62,38.37 7.41,39.64 6.81,40.77 6.22,41.91 5.29,42.79 4.36,43.67 3.19,44.21 2.03,44.75 0.76,44.89 -0.51,45.03 -1.76,44.76 -3.01,44.49 -4.11,43.83 -5.21,43.17 -6.05,42.19 -6.88,41.22 -7.35,40.02 -7.83,38.83 -7.90,37.55 -7.97,36.27 -7.63,35.04 -7.29,33.80 -6.57,32.74 -5.85,31.68 -4.83,30.90 -3.81,30.12 -2.60,29.71 -1.38,29.30 -0.10,29.30 1.17,29.30 2.39,29.70 3.60,30.11 4.62,30.89 5.65,31.66 6.37,32.72 7.09,33.78 7.43,35.02 7.78,36.25 7.71,37.53 7.64,38.81 7.17,40.01 6.70,41.20 5.87,42.18 5.04,43.15 3.94,43.82 2.84,44.48 1.59,44.76 0.34,45.03 -0.93,44.90 -2.20,44.76 -3.37,44.22 -4.53,43.69 -5.46,42.80 -6.39,41.92 -7.00,40.79 -7.60,39.66 -7.81,38.39 -8.02,37.13 -8.02,37.13 -8.02,37.13 -8.30,34.97 -8.57,32.81 -8.77,30.29 -8.97,27.77 -7.32,25.24 -5.67,22.72 -7.22,25.62 -8.77,28.51 -8.71,26.29 -8.66,24.07 -8.55,21.84 -8.45,19.61 -8.39,17.30 -8.32,14.99 -8.14,12.66 -7.95,10.33 -7.81,7.76 -7.67,5.19 -7.45,2.63 -7.23,0.07 -6.69,-2.17 -6.14,-4.42 -6.53,-2.21 -6.92,-0.00 -6.92,-0.95 -6.92,-1.90 -6.69,-2.82 -6.46,-3.75 -6.02,-4.59 -5.58,-5.43 -4.94,-6.14 -4.31,-6.86 -3.53,-7.40 -2.74,-7.94 -1.85,-8.27 -0.96,-8.61 -0.01,-8.72 0.92,-8.83 1.87,-8.72 2.81,-8.60 3.70,-8.26 4.59,-7.92 5.37,-7.38 6.16,-6.84 6.79,-6.12 7.42,-5.41 7.86,-4.57 8.30,-3.72 8.52,-2.80 8.75,-1.87 8.35,-2.97 7.95,-4.06 8.56,-1.62 9.17,0.80 9.38,3.32 9.60,5.83 9.59,7.98 9.58,10.13 9.45,12.37 9.32,14.61 9.18,16.96 9.05,19.31 8.95,21.81 8.86,24.30 8.84,26.55 8.82,28.80 8.47,31.22 8.13,33.65 6.60,35.19 5.08,36.73 0.62,37.89 -3.82,39.05 -5.67,36.86 -7.51,34.67 -7.99,32.32 -8.48,29.97 -6.94,32.24 -5.40,34.51 -7.03,32.07 -8.67,29.62 -6.85,31.41 -5.03,33.20 -2.95,34.45 -0.88,35.70 1.12,34.95 3.13,34.21 4.65,30.40 6.18,26.60 4.39,24.15 2.60,21.69 4.56,24.10 6.52,26.51 6.35,28.87 6.19,31.24 1.92,28.72 -2.34,26.20 -4.67,28.30 -7.01,30.41 -6.69,33.01 -6.37,35.61 -7.40,33.49 -8.43,31.37 -9.02,29.18 -9.61,26.99 -9.81,24.54 -10.01,22.08 -10.01,19.85 -10.00,17.61 -10.00,15.40 -10.00,13.18 -9.88,10.75 -9.76,8.32 -9.79,7.37 -9.81,6.42 -9.60,5.49 -9.39,4.56 -8.97,3.71 -8.55,2.86 -7.93,2.13 -7.32,1.41 -6.55,0.85 -5.78,0.29 -4.90,-0.06 -4.02,-0.41 -3.08,-0.55 -2.14,-0.69 -1.19,-0.59 -0.24,-0.50 0.64,-0.18 1.54,0.12 2.34,0.65 3.13,1.17 3.78,1.87 4.42,2.56 4.89,3.39 5.35,4.23 5.60,5.14 5.84,6.06 5.58,5.20 5.32,4.35 3.82,2.69 2.33,1.03 4.32,3.60 6.31,6.17 6.88,9.51 7.46,12.86 7.84,15.12 8.21,17.37 8.37,19.50 8.53,21.63 8.78,24.15 9.03,26.67 8.54,29.59 8.05,32.50 7.46,33.24 6.87,33.97 6.13,34.55 5.38,35.12 4.52,35.50 3.65,35.88 2.72,36.04 1.79,36.20 0.85,36.14 -0.08,36.07 -0.97,35.78 -1.87,35.49 -2.67,35.00 -3.47,34.50 -4.13,33.83 -4.79,33.15 -5.27,32.34 -5.75,31.53 -6.02,30.63 -6.30,29.73 -6.34,28.78 -6.39,27.84 -6.21,26.92 -6.03,25.99 -5.64,25.14 -5.24,24.28 -5.68,25.82 -6.12,27.36 -5.94,25.23 -5.77,23.10 -5.76,20.90 -5.74,18.70 -5.47,16.42 -5.20,14.15 -5.11,11.77 -5.03,9.39 -5.89,6.92 -6.75,4.44 -6.92,2.15 -7.09,-0.12 -6.41,-2.14 -5.73,-4.16 -4.23,-2.33 -2.74,-0.50 -5.26,-3.45 -7.78,-6.39 -7.81,-7.28 -7.83,-8.18 -7.65,-9.05 -7.46,-9.92 -7.07,-10.73 -6.68,-11.53 -6.10,-12.22 -5.53,-12.90 -4.81,-13.43 -4.09,-13.96 -3.27,-14.30 -2.44,-14.64 -1.56,-14.78 -0.68,-14.91 0.20,-14.83 1.09,-14.75 1.94,-14.46 2.78,-14.17 3.53,-13.68 4.28,-13.20 4.89,-12.55 5.50,-11.90 5.94,-11.12 6.38,-10.34 6.62,-9.48 6.86,-8.62 6.90,-7.94 6.95,-7.26 5.85,-4.64 4.76,-2.03 3.45,-0.18 2.14,1.66 3.86,0.39 5.59,-0.88 5.58,1.30 5.58,3.49 5.52,5.72 5.46,7.94 5.38,10.17 5.31,12.41 5.22,14.59 5.12,16.77 4.37,19.16 3.62,21.54 -0.85,23.41 -5.33,25.28 -7.06,22.81 -8.78,20.34 -8.85,17.93 -8.93,15.52 -8.75,13.18 -8.56,10.84 -8.02,8.76 -7.47,6.68 -6.69,4.32 -5.91,1.96 -5.39,0.33 -4.86,-1.29 -4.63,-1.85 -4.40,-2.42 -4.05,-2.91 -3.70,-3.40 -3.24,-3.79 -2.77,-4.19 -2.23,-4.46 -1.69,-4.73 -1.10,-4.87 -0.51,-5.00 0.09,-4.99 0.70,-4.98 1.28,-4.82 1.87,-4.66 2.40,-4.37 2.93,-4.08 3.38,-3.67 3.82,-3.26 4.16,-2.75 4.49,-2.25 4.70,-1.68 4.90,-1.11 4.96,-0.50 5.02,0.09 4.94,0.69 4.86,1.29 4.86,1.29 L 4.86,1.29 Z"></path></g><g transform="translate(172.37446443594433 214.26577153104648) rotate(0 -3.226836156649483 -7.198326810987339)" stroke="none"><path fill="#1e1e1e" d="M -2.19,1.31 Q -2.19,1.31 -2.66,0.62 -3.12,-0.06 -4.05,-1.29 -4.98,-2.53 -5.44,-3.62 -5.89,-4.70 -6.49,-6.19 -7.09,-7.67 -7.84,-9.13 -8.58,-10.58 -9.20,-12.32 -9.83,-14.06 -9.77,-14.60 -9.71,-15.15 -9.48,-15.64 -9.25,-16.14 -8.87,-16.54 -8.50,-16.94 -8.01,-17.20 -7.53,-17.45 -6.99,-17.54 -6.45,-17.63 -5.90,-17.55 -5.36,-17.46 -4.88,-17.20 -4.39,-16.95 -4.02,-16.55 -3.64,-16.15 -3.41,-15.65 -3.18,-15.16 -3.12,-14.61 -3.06,-14.07 -3.17,-13.53 -3.29,-12.99 -3.57,-12.52 -3.85,-12.05 -4.27,-11.70 -4.69,-11.34 -5.20,-11.14 -5.71,-10.93 -6.25,-10.90 -6.80,-10.87 -7.33,-11.02 -7.86,-11.17 -8.31,-11.47 -8.77,-11.78 -9.10,-12.22 -9.43,-12.65 -9.61,-13.17 -9.79,-13.69 -9.79,-14.24 -9.79,-14.79 -9.61,-15.31 -9.44,-15.83 -9.11,-16.26 -8.77,-16.70 -8.32,-17.01 -7.87,-17.32 -7.34,-17.47 -6.81,-17.61 -6.26,-17.58 -5.72,-17.56 -5.21,-17.35 -4.70,-17.15 -4.28,-16.80 -3.86,-16.44 -3.58,-15.97 -3.29,-15.50 -3.17,-14.97 -3.06,-14.43 -3.06,-14.43 -3.06,-14.43 -2.83,-13.56 -2.61,-12.69 -2.03,-11.70 -1.45,-10.72 -1.01,-9.42 -0.57,-8.11 -0.49,-6.75 -0.40,-5.39 0.50,-4.09 1.41,-2.79 1.80,-2.05 2.19,-1.31 2.32,-1.03 2.44,-0.75 2.50,-0.45 2.55,-0.14 2.53,0.16 2.51,0.47 2.42,0.76 2.33,1.05 2.17,1.32 2.01,1.58 1.79,1.80 1.57,2.02 1.30,2.18 1.04,2.33 0.74,2.43 0.45,2.52 0.14,2.53 -0.16,2.55 -0.46,2.50 -0.77,2.44 -1.05,2.31 -1.33,2.18 -1.57,1.99 -1.81,1.80 -2.00,1.56 -2.19,1.31 -2.19,1.31 L -2.19,1.31 Z"></path></g><g transform="translate(188.7568633850879 211.78358987208532) rotate(0 -1.2410908294805836 -8.191199474571789)" stroke="none"><path fill="#1e1e1e" d="M -2.51,0.50 Q -2.51,0.50 -2.70,-0.20 -2.88,-0.90 -3.09,-2.17 -3.31,-3.44 -3.64,-4.60 -3.97,-5.77 -4.31,-7.09 -4.65,-8.42 -4.97,-9.66 -5.29,-10.91 -5.58,-13.49 -5.88,-16.07 -5.82,-16.62 -5.75,-17.17 -5.51,-17.67 -5.28,-18.17 -4.89,-18.56 -4.51,-18.96 -4.02,-19.21 -3.53,-19.47 -2.98,-19.55 -2.44,-19.63 -1.89,-19.54 -1.35,-19.45 -0.86,-19.18 -0.38,-18.92 -0.00,-18.51 0.36,-18.11 0.59,-17.60 0.82,-17.10 0.87,-16.55 0.93,-16.00 0.80,-15.46 0.68,-14.93 0.39,-14.46 0.10,-13.99 -0.32,-13.63 -0.74,-13.28 -1.26,-13.08 -1.77,-12.88 -2.32,-12.86 -2.87,-12.83 -3.40,-12.98 -3.94,-13.14 -4.39,-13.45 -4.84,-13.77 -5.17,-14.21 -5.50,-14.65 -5.67,-15.18 -5.84,-15.70 -5.84,-16.26 -5.83,-16.81 -5.65,-17.33 -5.47,-17.85 -5.13,-18.29 -4.79,-18.72 -4.33,-19.03 -3.87,-19.33 -3.34,-19.48 -2.80,-19.62 -2.25,-19.58 -1.70,-19.55 -1.19,-19.34 -0.68,-19.13 -0.26,-18.77 0.14,-18.40 0.42,-17.93 0.70,-17.45 0.82,-16.91 0.93,-16.37 0.93,-16.37 0.93,-16.37 0.65,-14.23 0.37,-12.09 0.89,-10.36 1.41,-8.62 1.60,-7.57 1.80,-6.53 2.09,-5.32 2.38,-4.12 2.35,-3.03 2.31,-1.94 2.41,-1.22 2.51,-0.50 2.53,-0.19 2.56,0.11 2.51,0.41 2.45,0.72 2.33,1.00 2.21,1.29 2.02,1.53 1.84,1.78 1.60,1.97 1.36,2.17 1.08,2.30 0.80,2.43 0.49,2.49 0.19,2.55 -0.11,2.54 -0.42,2.52 -0.71,2.44 -1.01,2.35 -1.28,2.19 -1.54,2.04 -1.77,1.82 -1.99,1.61 -2.15,1.35 -2.32,1.08 -2.41,0.79 -2.51,0.50 -2.51,0.50 L -2.51,0.50 Z"></path></g><g transform="translate(206.13213499781597 211.2871535402931) rotate(0 2.4821816589611387 -6.7018904791951)" stroke="none"><path fill="#1e1e1e" d="M -2.51,-0.50 Q -2.51,-0.50 -2.41,-1.22 -2.31,-1.94 -2.02,-3.41 -1.73,-4.88 -1.56,-6.48 -1.39,-8.08 -0.83,-9.08 -0.27,-10.08 0.77,-12.29 1.82,-14.50 2.10,-14.96 2.37,-15.43 2.78,-15.77 3.19,-16.12 3.69,-16.33 4.19,-16.53 4.72,-16.56 5.26,-16.59 5.78,-16.45 6.30,-16.30 6.75,-16.00 7.19,-15.70 7.52,-15.28 7.85,-14.85 8.02,-14.34 8.19,-13.83 8.19,-13.29 8.20,-12.75 8.03,-12.24 7.86,-11.73 7.53,-11.30 7.21,-10.87 6.76,-10.57 6.32,-10.27 5.80,-10.12 5.28,-9.98 4.75,-10.00 4.21,-10.03 3.71,-10.23 3.21,-10.43 2.80,-10.77 2.39,-11.12 2.11,-11.58 1.83,-12.04 1.71,-12.57 1.59,-13.09 1.65,-13.63 1.71,-14.16 1.93,-14.65 2.15,-15.14 2.52,-15.53 2.89,-15.92 3.37,-16.18 3.84,-16.43 4.37,-16.52 4.90,-16.61 5.43,-16.52 5.96,-16.44 6.44,-16.19 6.92,-15.93 7.29,-15.55 7.66,-15.16 7.89,-14.67 8.11,-14.18 8.17,-13.65 8.23,-13.11 8.12,-12.59 8.01,-12.06 8.01,-12.06 8.01,-12.06 6.94,-10.00 5.87,-7.94 4.92,-6.73 3.98,-5.52 3.83,-4.45 3.69,-3.38 3.29,-2.14 2.88,-0.90 2.70,-0.20 2.51,0.50 2.41,0.79 2.32,1.08 2.15,1.35 1.99,1.61 1.76,1.82 1.54,2.04 1.28,2.19 1.01,2.35 0.71,2.44 0.42,2.52 0.11,2.54 -0.19,2.55 -0.49,2.49 -0.80,2.43 -1.08,2.30 -1.36,2.17 -1.60,1.97 -1.84,1.78 -2.02,1.53 -2.21,1.29 -2.33,1.00 -2.45,0.72 -2.51,0.41 -2.56,0.11 -2.53,-0.19 -2.51,-0.50 -2.51,-0.50 L -2.51,-0.50 Z"></path></g><g transform="translate(225.9895882695052 213.272898867462) rotate(0 2.4821816589611103 -5.212581483818411)" stroke="none"><path fill="#1e1e1e" d="M -2.37,-0.95 Q -2.37,-0.95 -2.13,-1.68 -1.89,-2.41 -1.54,-3.69 -1.20,-4.97 -0.42,-6.24 0.35,-7.50 1.16,-9.52 1.98,-11.53 2.25,-11.97 2.53,-12.40 2.92,-12.73 3.32,-13.06 3.80,-13.24 4.28,-13.42 4.79,-13.44 5.31,-13.46 5.80,-13.31 6.29,-13.17 6.71,-12.87 7.13,-12.58 7.44,-12.16 7.74,-11.75 7.90,-11.26 8.05,-10.77 8.05,-10.26 8.04,-9.74 7.87,-9.26 7.69,-8.78 7.38,-8.37 7.06,-7.97 6.63,-7.69 6.20,-7.41 5.70,-7.28 5.20,-7.15 4.69,-7.18 4.18,-7.22 3.71,-7.42 3.23,-7.62 2.85,-7.95 2.46,-8.29 2.20,-8.74 1.94,-9.18 1.84,-9.69 1.74,-10.19 1.80,-10.70 1.87,-11.21 2.09,-11.67 2.31,-12.13 2.67,-12.50 3.03,-12.87 3.49,-13.10 3.95,-13.33 4.46,-13.41 4.97,-13.48 5.47,-13.39 5.98,-13.30 6.43,-13.05 6.88,-12.81 7.22,-12.43 7.57,-12.05 7.78,-11.58 7.99,-11.11 8.03,-10.60 8.08,-10.09 7.96,-9.59 7.84,-9.09 7.84,-9.09 7.84,-9.09 7.19,-8.08 6.54,-7.08 5.87,-5.85 5.21,-4.61 4.42,-3.55 3.64,-2.49 3.33,-1.46 3.03,-0.44 2.70,0.25 2.37,0.95 2.23,1.22 2.08,1.49 1.87,1.72 1.66,1.94 1.40,2.11 1.14,2.28 0.85,2.39 0.56,2.49 0.26,2.52 -0.04,2.56 -0.35,2.51 -0.65,2.47 -0.94,2.36 -1.23,2.24 -1.48,2.06 -1.73,1.88 -1.93,1.65 -2.13,1.41 -2.27,1.14 -2.41,0.86 -2.47,0.56 -2.54,0.26 -2.54,-0.04 -2.53,-0.35 -2.45,-0.65 -2.37,-0.95 -2.37,-0.95 L -2.37,-0.95 Z"></path></g><g transform="translate(176.8423914220744 282.7739853183742) rotate(0 -0.9928726635844498 5.957235981506756)" stroke="none"><path fill="#1e1e1e" d="M 2.56,0 Q 2.56,0 2.60,0.71 2.65,1.42 2.68,2.82 2.71,4.21 2.38,5.90 2.06,7.59 1.44,9.34 0.82,11.09 0.97,11.94 1.12,12.79 0.88,13.26 0.64,13.72 0.26,14.08 -0.10,14.45 -0.58,14.67 -1.05,14.90 -1.57,14.96 -2.09,15.02 -2.60,14.91 -3.11,14.80 -3.56,14.54 -4.01,14.27 -4.35,13.88 -4.69,13.48 -4.89,13.00 -5.09,12.52 -5.12,12.00 -5.16,11.47 -5.02,10.97 -4.89,10.46 -4.60,10.03 -4.31,9.59 -3.90,9.27 -3.48,8.95 -2.99,8.78 -2.50,8.61 -1.97,8.60 -1.45,8.60 -0.95,8.76 -0.46,8.92 -0.04,9.24 0.37,9.55 0.67,9.98 0.97,10.41 1.11,10.91 1.26,11.41 1.23,11.93 1.21,12.46 1.02,12.94 0.83,13.43 0.50,13.83 0.16,14.23 -0.27,14.51 -0.72,14.78 -1.23,14.90 -1.74,15.02 -2.26,14.96 -2.78,14.91 -3.25,14.70 -3.73,14.48 -4.11,14.13 -4.49,13.77 -4.74,13.31 -4.99,12.85 -5.08,12.34 -5.17,11.82 -5.09,11.31 -5.01,10.79 -5.01,10.79 -5.01,10.79 -4.26,8.41 -3.51,6.03 -3.37,4.95 -3.22,3.86 -2.93,2.64 -2.65,1.42 -2.60,0.71 -2.56,0 -2.52,-0.30 -2.48,-0.61 -2.37,-0.90 -2.26,-1.19 -2.09,-1.44 -1.91,-1.69 -1.68,-1.90 -1.45,-2.10 -1.18,-2.25 -0.90,-2.39 -0.60,-2.46 -0.30,-2.54 0.00,-2.54 0.30,-2.54 0.60,-2.46 0.90,-2.39 1.18,-2.25 1.45,-2.10 1.68,-1.90 1.91,-1.69 2.09,-1.44 2.26,-1.19 2.37,-0.90 2.48,-0.61 2.52,-0.30 2.56,0.00 2.56,0.00 L 2.56,0 Z"></path></g><g transform="translate(193.7212267030102 283.7668579819586) rotate(0 -0.24821816589610535 6.701890479195129)" stroke="none"><path fill="#1e1e1e" d="M 2.53,0.50 Q 2.53,0.50 2.43,1.22 2.33,1.95 2.36,3.22 2.39,4.50 2.48,5.79 2.57,7.07 2.64,8.32 2.72,9.56 2.74,11.40 2.75,13.24 2.67,13.76 2.58,14.28 2.34,14.75 2.09,15.21 1.71,15.58 1.33,15.94 0.85,16.16 0.37,16.38 -0.14,16.44 -0.67,16.49 -1.18,16.38 -1.70,16.27 -2.15,16.00 -2.60,15.72 -2.94,15.32 -3.28,14.92 -3.48,14.43 -3.67,13.94 -3.70,13.42 -3.73,12.89 -3.59,12.38 -3.45,11.88 -3.15,11.44 -2.85,11.00 -2.44,10.68 -2.02,10.37 -1.52,10.20 -1.02,10.03 -0.49,10.03 0.03,10.03 0.52,10.20 1.02,10.37 1.44,10.69 1.86,11.00 2.16,11.44 2.45,11.88 2.59,12.38 2.74,12.89 2.71,13.42 2.68,13.94 2.48,14.43 2.29,14.92 1.95,15.32 1.61,15.72 1.15,16.00 0.70,16.27 0.19,16.38 -0.32,16.49 -0.84,16.44 -1.36,16.38 -1.84,16.16 -2.32,15.94 -2.70,15.57 -3.08,15.21 -3.33,14.75 -3.58,14.28 -3.66,13.76 -3.75,13.24 -3.75,13.24 -3.75,13.24 -3.70,10.90 -3.65,8.56 -3.57,7.31 -3.49,6.06 -3.38,4.80 -3.27,3.54 -3.09,2.22 -2.90,0.90 -2.72,0.19 -2.53,-0.50 -2.44,-0.80 -2.34,-1.10 -2.17,-1.36 -2.01,-1.62 -1.78,-1.84 -1.56,-2.06 -1.29,-2.22 -1.02,-2.37 -0.72,-2.46 -0.42,-2.55 -0.11,-2.56 0.19,-2.58 0.50,-2.51 0.81,-2.45 1.09,-2.32 1.37,-2.19 1.61,-1.99 1.85,-1.80 2.04,-1.55 2.23,-1.30 2.36,-1.01 2.48,-0.72 2.53,-0.42 2.58,-0.11 2.56,0.19 2.53,0.50 2.53,0.50 L 2.53,0.50 Z"></path></g><g transform="translate(211.09649831573824 281.2846763229974) rotate(0 2.730399824857244 6.701890479195129)" stroke="none"><path fill="#1e1e1e" d="M 2.61,0 Q 2.61,0 2.65,0.70 2.69,1.40 3.39,2.47 4.09,3.54 4.68,4.55 5.26,5.56 5.83,6.58 6.40,7.60 7.56,10.22 8.72,12.84 8.70,13.38 8.68,13.91 8.49,14.41 8.30,14.92 7.96,15.33 7.63,15.74 7.17,16.03 6.72,16.31 6.20,16.44 5.68,16.56 5.14,16.51 4.61,16.46 4.12,16.25 3.63,16.03 3.23,15.67 2.84,15.31 2.58,14.84 2.32,14.37 2.22,13.84 2.13,13.32 2.21,12.79 2.28,12.26 2.53,11.78 2.77,11.30 3.15,10.93 3.53,10.55 4.01,10.32 4.50,10.09 5.03,10.02 5.56,9.95 6.08,10.06 6.61,10.16 7.07,10.43 7.54,10.70 7.89,11.10 8.24,11.50 8.45,12.00 8.66,12.49 8.70,13.03 8.73,13.56 8.60,14.08 8.47,14.60 8.17,15.04 7.88,15.49 7.46,15.82 7.04,16.16 6.54,16.34 6.03,16.52 5.50,16.53 4.96,16.53 4.45,16.37 3.94,16.21 3.51,15.89 3.08,15.58 2.77,15.14 2.46,14.70 2.31,14.19 2.15,13.67 2.15,13.68 2.15,13.68 2.15,13.18 2.14,12.68 1.36,11.25 0.58,9.83 -0.06,8.31 -0.71,6.80 -1.27,5.75 -1.82,4.70 -2.26,3.07 -2.69,1.44 -2.65,0.72 -2.61,0 -2.57,-0.31 -2.53,-0.62 -2.42,-0.91 -2.31,-1.21 -2.13,-1.47 -1.95,-1.73 -1.72,-1.94 -1.48,-2.15 -1.20,-2.29 -0.92,-2.44 -0.62,-2.51 -0.31,-2.59 0.00,-2.59 0.31,-2.59 0.62,-2.51 0.92,-2.44 1.20,-2.29 1.48,-2.15 1.72,-1.94 1.95,-1.73 2.13,-1.47 2.31,-1.21 2.42,-0.91 2.53,-0.62 2.57,-0.31 2.61,0.00 2.61,0.00 L 2.61,0 Z"></path></g><g transform="translate(78.3428035064062 433.80128659679445) rotate(0 -2.637161710756118 68.34952213350266)" stroke="none"><path fill="#1e1e1e" d="M 5.24,0.39 Q 5.24,0.39 5.12,2.63 4.99,4.87 5.05,7.20 5.10,9.52 5.25,12.22 5.40,14.91 5.30,17.64 5.21,20.37 5.29,23.31 5.36,26.25 5.16,28.64 4.96,31.02 4.99,33.64 5.01,36.26 5.08,38.78 5.15,41.31 5.22,43.69 5.29,46.07 5.34,48.22 5.39,50.37 5.44,52.95 5.49,55.53 5.10,57.70 4.71,59.88 4.87,62.41 5.03,64.95 5.05,67.28 5.06,69.62 4.81,71.74 4.56,73.86 3.54,77.17 2.51,80.47 3.28,82.95 4.04,85.44 4.05,87.80 4.06,90.16 3.41,93.41 2.76,96.67 3.14,99.06 3.52,101.44 3.53,103.84 3.53,106.24 3.53,108.43 3.53,110.62 3.25,113.04 2.97,115.46 2.97,118.22 2.97,120.98 2.97,123.24 2.97,125.50 2.98,127.75 2.99,130.00 2.67,133.84 2.36,137.68 1.96,138.86 1.56,140.04 0.81,141.03 0.05,142.02 -0.97,142.72 -2.00,143.41 -3.20,143.74 -4.40,144.08 -5.65,144.01 -6.89,143.94 -8.05,143.47 -9.20,143.01 -10.15,142.20 -11.10,141.40 -11.74,140.33 -12.38,139.26 -12.65,138.04 -12.91,136.83 -12.77,135.59 -12.64,134.35 -12.11,133.22 -11.59,132.09 -10.73,131.19 -9.87,130.29 -8.77,129.71 -7.67,129.12 -6.44,128.92 -5.21,128.72 -3.98,128.93 -2.75,129.13 -1.65,129.72 -0.56,130.30 0.29,131.21 1.14,132.11 1.67,133.24 2.19,134.38 2.32,135.61 2.45,136.85 2.18,138.07 1.91,139.28 1.27,140.35 0.62,141.42 -0.32,142.22 -1.27,143.02 -2.43,143.48 -3.58,143.94 -4.83,144.01 -6.07,144.07 -7.27,143.74 -8.47,143.40 -9.50,142.70 -10.53,142.00 -11.28,141.01 -12.03,140.02 -12.43,138.83 -12.82,137.65 -12.82,136.41 -12.82,135.16 -12.82,135.16 -12.82,135.17 -12.60,134.31 -12.38,133.46 -12.37,131.29 -12.36,129.13 -12.35,126.77 -12.35,124.41 -12.35,122.01 -12.35,119.61 -12.33,117.32 -12.31,115.03 -12.02,112.79 -11.74,110.55 -11.73,108.40 -11.73,106.24 -11.73,103.84 -11.73,101.44 -11.71,99.07 -11.70,96.70 -11.33,94.31 -10.96,91.91 -11.01,89.48 -11.07,87.05 -11.07,84.26 -11.07,81.47 -11.02,79.08 -10.98,76.70 -10.66,74.10 -10.33,71.51 -10.03,68.70 -9.73,65.90 -9.70,63.66 -9.67,61.42 -9.56,59.21 -9.44,57.00 -9.19,54.56 -8.95,52.13 -8.89,49.78 -8.84,47.44 -8.77,44.93 -8.70,42.42 -8.63,39.83 -8.55,37.24 -8.47,34.97 -8.38,32.70 -8.04,29.45 -7.70,26.20 -7.51,23.09 -7.32,19.97 -6.94,17.43 -6.56,14.89 -6.37,12.07 -6.18,9.25 -5.93,6.66 -5.67,4.07 -5.46,1.84 -5.24,-0.39 -5.12,-1.01 -5.00,-1.63 -4.73,-2.21 -4.46,-2.78 -4.06,-3.28 -3.66,-3.77 -3.16,-4.15 -2.65,-4.54 -2.07,-4.79 -1.49,-5.04 -0.86,-5.15 -0.24,-5.25 0.39,-5.20 1.02,-5.16 1.62,-4.96 2.23,-4.76 2.76,-4.43 3.30,-4.09 3.74,-3.63 4.19,-3.18 4.51,-2.63 4.83,-2.08 5.01,-1.48 5.19,-0.87 5.21,-0.23 5.24,0.39 5.24,0.39 L 5.24,0.39 Z"></path></g><g transform="translate(118.19324713560951 435.5593944039652) rotate(0 12.01373668233336 46.88287485788629)" stroke="none"><path fill="#1e1e1e" d="M 5.18,-0.43 Q 5.18,-0.43 5.41,1.58 5.65,3.60 5.90,6.01 6.16,8.42 6.65,11.24 7.13,14.06 7.56,16.14 7.98,18.23 8.12,20.52 8.26,22.81 8.37,24.95 8.48,27.10 8.57,29.60 8.67,32.10 8.74,34.29 8.82,36.48 8.51,39.54 8.20,42.60 8.05,44.82 7.90,47.05 7.95,49.38 7.99,51.72 8.00,52.31 8.01,52.89 7.90,53.78 7.80,54.67 7.48,55.51 7.16,56.34 6.65,57.08 6.14,57.82 5.47,58.41 4.80,59.01 4.01,59.42 3.22,59.84 2.35,60.05 1.48,60.27 0.58,60.27 -0.31,60.27 -1.17,60.05 -2.04,59.84 -2.84,59.42 -3.63,59.01 -4.30,58.41 -4.97,57.82 -5.48,57.08 -5.99,56.34 -6.31,55.51 -6.62,54.67 -6.73,53.78 -6.84,52.89 -3.90,49.56 -0.95,46.24 0.05,43.93 1.07,41.61 2.85,40.32 4.63,39.02 7.08,36.59 9.53,34.16 11.83,32.85 14.13,31.54 16.30,30.73 18.47,29.92 19.19,29.70 19.91,29.47 20.83,29.53 21.76,29.59 22.65,29.87 23.54,30.15 24.33,30.64 25.12,31.12 25.78,31.79 26.43,32.45 26.91,33.25 27.38,34.04 27.66,34.93 27.93,35.82 27.98,36.75 28.03,37.68 27.86,38.59 27.69,39.51 27.30,40.35 26.91,41.20 26.34,41.93 25.76,42.66 25.02,43.23 24.29,43.80 23.44,44.18 22.59,44.55 21.67,44.72 20.76,44.88 24.04,39.45 27.32,34.03 28.03,36.60 28.73,39.17 29.03,41.55 29.33,43.93 29.63,46.28 29.92,48.62 29.96,50.90 30.00,53.17 30.01,55.38 30.02,57.58 30.03,59.87 30.03,62.15 30.04,64.55 30.04,66.95 30.30,69.20 30.56,71.46 30.60,73.86 30.64,76.27 30.65,78.64 30.66,81.02 30.66,83.19 30.66,85.35 29.61,86.37 28.56,87.38 29.44,88.29 30.33,89.20 30.88,90.34 31.43,91.48 31.58,92.74 31.74,93.99 31.48,95.23 31.23,96.47 30.59,97.57 29.95,98.66 29.00,99.49 28.05,100.33 26.88,100.81 25.71,101.30 24.45,101.39 23.18,101.47 21.96,101.15 20.73,100.83 19.68,100.14 18.62,99.44 17.84,98.44 17.06,97.45 16.64,96.25 16.21,95.06 16.20,93.79 16.18,92.53 16.56,91.32 16.95,90.12 17.70,89.10 18.45,88.08 19.49,87.35 20.53,86.63 21.74,86.27 22.96,85.92 24.22,85.97 25.49,86.02 26.67,86.47 27.85,86.92 28.83,87.73 29.81,88.53 30.48,89.61 31.14,90.68 31.43,91.91 31.72,93.15 31.60,94.41 31.49,95.67 30.97,96.82 30.46,97.98 29.60,98.91 28.74,99.84 27.63,100.45 26.52,101.06 25.28,101.28 24.03,101.51 22.78,101.32 21.52,101.13 20.40,100.56 19.27,99.98 19.27,99.98 19.27,99.98 17.79,95.87 16.31,91.76 15.67,89.60 15.04,87.44 15.04,85.11 15.04,82.78 15.04,80.43 15.05,78.09 15.17,75.78 15.28,73.47 14.88,70.80 14.48,68.13 14.49,65.94 14.50,63.76 14.50,61.42 14.50,59.09 14.51,56.84 14.52,54.60 14.52,52.17 14.51,49.73 14.22,47.45 13.93,45.17 13.74,42.93 13.54,40.70 16.72,35.08 19.91,29.47 20.83,29.53 21.76,29.59 22.65,29.87 23.53,30.15 24.33,30.64 25.12,31.12 25.78,31.79 26.43,32.45 26.91,33.24 27.38,34.04 27.66,34.93 27.93,35.82 27.98,36.75 28.03,37.68 27.86,38.59 27.69,39.51 27.30,40.35 26.91,41.20 26.34,41.93 25.76,42.66 25.02,43.23 24.29,43.80 23.44,44.17 22.59,44.55 21.67,44.72 20.76,44.88 22.16,44.08 23.56,43.27 20.86,44.81 18.15,46.35 20.01,45.06 21.86,43.78 19.75,44.97 17.64,46.16 16.05,47.70 14.46,49.24 12.89,51.16 11.33,53.07 9.19,55.02 7.06,56.98 4.59,58.17 2.13,59.37 5.07,56.13 8.01,52.89 7.90,53.78 7.80,54.67 7.48,55.51 7.16,56.34 6.65,57.08 6.14,57.82 5.47,58.41 4.80,59.01 4.01,59.42 3.22,59.84 2.35,60.05 1.48,60.27 0.58,60.27 -0.30,60.27 -1.17,60.05 -2.04,59.84 -2.84,59.42 -3.63,59.01 -4.30,58.41 -4.97,57.82 -5.48,57.08 -5.99,56.34 -6.31,55.51 -6.62,54.67 -6.73,53.78 -6.84,52.89 -6.79,50.54 -6.75,48.20 -6.68,46.05 -6.60,43.91 -5.98,41.24 -5.36,38.58 -5.28,36.04 -5.20,33.50 -5.11,31.06 -5.02,28.61 -4.91,26.07 -4.79,23.52 -4.49,21.11 -4.19,18.69 -4.51,15.99 -4.83,13.29 -4.95,11.04 -5.08,8.79 -5.02,6.64 -4.97,4.48 -5.08,2.45 -5.18,0.43 -5.16,-0.19 -5.13,-0.82 -4.96,-1.42 -4.79,-2.02 -4.47,-2.57 -4.16,-3.11 -3.73,-3.56 -3.30,-4.02 -2.77,-4.35 -2.24,-4.69 -1.64,-4.89 -1.05,-5.09 -0.42,-5.14 0.19,-5.19 0.81,-5.10 1.43,-5.00 2.01,-4.75 2.59,-4.51 3.09,-4.13 3.59,-3.76 3.99,-3.27 4.39,-2.79 4.66,-2.22 4.93,-1.65 5.05,-1.04 5.18,-0.43 5.18,-0.43 L 5.18,-0.43 Z"></path></g><g transform="translate(253.5675482877561 436.14543033968874) rotate(0 -12.013736682333331 47.17589282574812)" stroke="none"><path fill="#1e1e1e" d="M 5.21,0.52 Q 5.21,0.52 5.12,2.21 5.03,3.90 5.08,6.13 5.12,8.35 5.27,11.13 5.42,13.91 5.56,16.19 5.70,18.47 5.83,20.61 5.95,22.75 6.05,24.90 6.15,27.05 5.59,29.61 5.03,32.17 5.18,34.33 5.33,36.48 5.39,38.82 5.45,41.15 5.49,43.59 5.52,46.03 5.57,48.29 5.61,50.55 5.38,49.87 5.15,49.19 5.50,50.02 5.85,50.84 5.99,51.72 6.13,52.61 6.06,53.50 5.98,54.39 5.70,55.24 5.41,56.08 4.93,56.84 4.46,57.59 3.81,58.21 3.16,58.83 2.39,59.28 1.61,59.72 0.75,59.97 -0.10,60.22 -0.99,60.25 -1.88,60.28 -2.76,60.10 -3.64,59.92 -4.44,59.54 -5.25,59.15 -5.94,58.59 -6.63,58.02 -7.17,57.30 -7.71,56.59 -9.51,54.07 -11.32,51.56 -13.48,49.72 -15.64,47.88 -17.58,46.96 -19.52,46.05 -21.20,44.53 -22.88,43.01 -24.50,40.90 -26.13,38.79 -27.36,38.11 -28.60,37.43 -28.97,36.58 -29.34,35.73 -29.50,34.81 -29.66,33.89 -29.59,32.97 -29.52,32.04 -29.24,31.15 -28.95,30.27 -28.46,29.48 -27.97,28.69 -27.30,28.04 -26.64,27.38 -25.84,26.91 -25.03,26.44 -24.14,26.17 -23.25,25.91 -22.32,25.86 -21.39,25.82 -20.48,25.99 -19.57,26.17 -18.72,26.56 -17.88,26.96 -17.15,27.54 -16.43,28.12 -15.86,28.86 -15.29,29.60 -15.04,33.03 -14.79,36.46 -15.24,38.53 -15.69,40.61 -15.72,42.88 -15.74,45.16 -16.01,47.29 -16.27,49.43 -16.28,51.68 -16.29,53.92 -16.29,56.20 -16.29,58.48 -16.28,60.67 -16.27,62.85 -16.26,65.36 -16.25,67.88 -16.25,70.05 -16.24,72.22 -16.24,74.57 -16.23,76.92 -16.22,79.26 -16.21,81.61 -16.21,83.95 -16.21,86.28 -16.21,88.63 -16.20,90.98 -16.20,92.57 -16.20,94.16 -16.40,95.41 -16.61,96.66 -17.20,97.78 -17.79,98.90 -18.71,99.77 -19.63,100.64 -20.78,101.17 -21.93,101.70 -23.19,101.84 -24.45,101.98 -25.68,101.70 -26.92,101.43 -28.00,100.78 -29.09,100.13 -29.91,99.16 -30.73,98.20 -31.20,97.02 -31.66,95.84 -31.73,94.58 -31.80,93.32 -31.46,92.10 -31.12,90.88 -30.41,89.83 -29.70,88.78 -28.69,88.01 -27.69,87.25 -26.49,86.84 -25.29,86.44 -24.02,86.44 -22.76,86.44 -21.56,86.85 -20.36,87.25 -19.35,88.02 -18.34,88.78 -17.63,89.83 -16.92,90.88 -16.58,92.10 -16.24,93.32 -16.31,94.58 -16.38,95.85 -16.85,97.02 -17.32,98.20 -18.14,99.16 -18.96,100.13 -20.04,100.78 -21.13,101.43 -22.36,101.70 -23.60,101.98 -24.86,101.84 -26.12,101.70 -27.27,101.17 -28.42,100.64 -29.33,99.77 -30.25,98.90 -30.85,97.78 -31.44,96.66 -31.64,95.41 -31.85,94.16 -31.85,94.16 -31.85,94.16 -31.84,90.52 -31.84,86.88 -31.83,84.70 -31.83,82.53 -31.83,80.31 -31.82,78.09 -31.81,75.75 -31.80,73.40 -31.80,71.00 -31.79,68.61 -31.78,66.32 -31.78,64.02 -31.77,61.79 -31.76,59.56 -31.75,57.41 -31.75,55.26 -31.76,52.75 -31.77,50.23 -31.67,47.93 -31.58,45.63 -31.38,43.09 -31.18,40.55 -31.03,38.24 -30.88,35.93 -30.18,33.86 -29.47,31.79 -29.03,34.61 -28.60,37.43 -28.97,36.58 -29.34,35.73 -29.50,34.81 -29.66,33.89 -29.59,32.97 -29.52,32.04 -29.24,31.15 -28.95,30.27 -28.46,29.48 -27.97,28.69 -27.30,28.04 -26.64,27.39 -25.84,26.91 -25.04,26.44 -24.14,26.17 -23.25,25.91 -22.32,25.86 -21.39,25.82 -20.48,25.99 -19.57,26.17 -18.72,26.56 -17.88,26.95 -17.15,27.54 -16.43,28.12 -15.86,28.86 -15.30,29.60 -16.49,28.34 -17.69,27.08 -15.58,29.17 -13.47,31.26 -11.18,33.02 -8.88,34.77 -6.22,36.60 -3.55,38.43 -1.50,40.89 0.54,43.35 2.84,46.27 5.15,49.19 5.50,50.02 5.85,50.84 5.99,51.72 6.13,52.61 6.06,53.50 5.98,54.39 5.70,55.24 5.41,56.08 4.93,56.84 4.46,57.59 3.81,58.21 3.16,58.83 2.39,59.28 1.61,59.72 0.75,59.97 -0.10,60.22 -0.99,60.25 -1.88,60.28 -2.76,60.10 -3.64,59.92 -4.44,59.54 -5.25,59.15 -5.94,58.59 -6.63,58.02 -7.17,57.30 -7.70,56.59 -7.79,56.25 -7.87,55.92 -8.49,52.65 -9.10,49.37 -9.06,47.13 -9.02,44.89 -8.99,42.71 -8.95,40.54 -8.88,38.17 -8.82,35.80 -8.65,33.65 -8.49,31.50 -7.90,29.28 -7.32,27.05 -7.22,24.90 -7.12,22.75 -7.00,20.61 -6.87,18.47 -6.73,16.17 -6.59,13.88 -6.40,10.91 -6.20,7.94 -5.96,5.38 -5.71,2.83 -5.46,1.15 -5.21,-0.52 -5.08,-1.13 -4.94,-1.75 -4.66,-2.32 -4.37,-2.88 -3.97,-3.37 -3.56,-3.85 -3.04,-4.22 -2.53,-4.59 -1.94,-4.82 -1.36,-5.06 -0.73,-5.15 -0.11,-5.24 0.51,-5.18 1.14,-5.11 1.74,-4.90 2.33,-4.69 2.86,-4.34 3.39,-3.99 3.82,-3.53 4.25,-3.07 4.55,-2.51 4.86,-1.96 5.02,-1.35 5.19,-0.74 5.20,-0.10 5.21,0.52 5.21,0.52 L 5.21,0.52 Z"></path></g><g transform="translate(69.67266656572048 571.5769905861455) rotate(0 -2.790624728786156 2.651093492346888)" stroke="none"><path fill="#1e1e1e" d="M 2.85,3.80 Q 2.85,3.80 2.26,4.35 1.68,4.90 0.98,2.59 0.28,0.28 -1.94,0.15 -4.18,0.01 -4.89,2.71 -5.61,5.42 -4.19,7.01 -2.76,8.60 -5.34,7.33 -7.92,6.06 -5.36,6.57 -2.80,7.08 -0.86,5.37 1.06,3.66 -0.03,1.50 -1.13,-0.66 -3.34,-0.39 -5.56,-0.13 -6.80,1.77 -8.05,3.68 -6.44,5.87 -4.83,8.06 -1.90,7.09 1.02,6.12 2.19,6.20 3.36,6.28 3.07,7.07 2.79,7.86 2.33,8.56 1.86,9.26 1.24,9.83 0.62,10.40 -0.10,10.81 -0.84,11.21 -1.65,11.43 -2.46,11.64 -3.30,11.66 -4.14,11.67 -4.96,11.49 -5.78,11.30 -6.53,10.93 -7.28,10.55 -7.92,10.00 -8.56,9.46 -9.05,8.78 -9.54,8.09 -9.86,7.31 -10.17,6.53 -10.28,5.70 -10.40,4.87 -10.32,4.03 -10.23,3.20 -5.71,0.67 -1.20,-1.85 -0.20,-1.33 0.78,-0.80 1.56,0.01 2.33,0.83 2.81,1.86 3.28,2.88 3.40,4.00 3.52,5.12 3.28,6.23 3.03,7.33 2.45,8.29 1.87,9.26 1.01,9.99 0.15,10.72 -0.89,11.13 -1.94,11.55 -3.07,11.61 -4.19,11.67 -5.28,11.37 -6.37,11.06 -7.30,10.43 -8.23,9.79 -8.91,8.90 -9.59,8.00 -9.95,6.93 -10.31,5.86 -10.31,4.73 -10.31,3.60 -9.95,2.53 -9.59,1.47 -8.90,0.57 -8.22,-0.32 -7.28,-0.95 -6.35,-1.58 -5.26,-1.88 -4.18,-2.18 -3.05,-2.12 -1.92,-2.06 -0.88,-1.64 0.16,-1.22 1.02,-0.49 1.88,0.23 2.46,1.20 3.04,2.17 3.28,3.27 3.52,4.37 3.40,5.49 3.27,6.61 2.80,7.64 2.32,8.66 1.55,9.48 0.77,10.29 -0.22,10.82 -1.21,11.35 -2.33,11.53 -3.44,11.71 -0.04,9.00 3.36,6.28 3.07,7.07 2.79,7.86 2.33,8.56 1.86,9.26 1.24,9.83 0.63,10.40 -0.10,10.81 -0.84,11.21 -1.65,11.43 -2.46,11.64 -3.30,11.66 -4.14,11.67 -4.96,11.49 -5.78,11.30 -6.53,10.93 -7.28,10.55 -7.92,10.00 -8.56,9.46 -9.05,8.78 -9.54,8.09 -9.86,7.31 -10.17,6.53 -10.28,5.70 -10.40,4.87 -10.32,4.03 -10.23,3.20 -10.56,1.18 -10.89,-0.82 -9.11,-2.34 -7.33,-3.87 -4.03,-4.26 -0.74,-4.65 1.56,-3.13 3.86,-1.61 4.49,1.88 5.12,5.37 3.46,7.89 1.79,10.41 -0.67,11.10 -3.14,11.79 -5.16,10.82 -7.18,9.85 -8.80,8.40 -10.42,6.95 -10.73,3.99 -11.04,1.02 -8.93,-1.07 -6.83,-3.17 -4.24,-3.43 -1.65,-3.68 0.40,-2.44 2.46,-1.19 3.59,2.00 4.72,5.20 3.40,7.17 2.08,9.15 -0.89,9.60 -3.86,10.05 -5.69,8.12 -7.53,6.18 -7.55,3.57 -7.58,0.95 -5.91,-1.00 -4.25,-2.97 -3.55,-3.39 -2.85,-3.80 -2.35,-4.09 -1.86,-4.37 -1.30,-4.53 -0.75,-4.69 -0.18,-4.71 0.38,-4.74 0.94,-4.62 1.51,-4.51 2.02,-4.26 2.54,-4.01 2.99,-3.65 3.43,-3.29 3.77,-2.83 4.12,-2.37 4.34,-1.84 4.57,-1.31 4.66,-0.75 4.75,-0.18 4.70,0.38 4.66,0.95 4.47,1.50 4.29,2.04 3.98,2.52 3.68,3.01 3.26,3.40 2.85,3.80 2.85,3.80 L 2.85,3.80 Z"></path></g><g transform="translate(75.31939862184498 573.3593980508012) rotate(0 0.9900427161001346 -2.970128148300489)" stroke="none"><path fill="#1e1e1e" d="M -2.52,-4.04 Q -2.52,-4.04 -1.91,-4.51 -1.31,-4.99 -0.60,-7.72 0.10,-10.44 3.00,-10.22 5.89,-10.00 7.56,-8.29 9.23,-6.58 8.89,-4.28 8.56,-1.97 7.13,-0.03 5.71,1.89 3.63,3.83 1.55,5.76 0.81,5.94 0.07,6.11 -0.68,6.11 -1.44,6.10 -2.17,5.92 -2.91,5.73 -3.57,5.37 -4.24,5.02 -4.81,4.51 -5.37,4.01 -5.80,3.38 -6.22,2.75 -6.49,2.04 -6.75,1.33 -6.84,0.58 -6.93,-0.17 -6.83,-0.92 -6.73,-1.67 -6.46,-2.38 -6.19,-3.08 -5.75,-3.70 -5.32,-4.33 -4.75,-4.83 -4.18,-5.32 -3.50,-5.67 -2.83,-6.02 -0.16,-5.79 2.50,-5.57 3.29,-4.92 4.08,-4.28 4.62,-3.42 5.16,-2.55 5.39,-1.56 5.63,-0.57 5.53,0.43 5.44,1.44 5.03,2.37 4.62,3.31 3.93,4.06 3.24,4.81 2.35,5.30 1.46,5.79 0.46,5.97 -0.53,6.15 -1.54,6.01 -2.54,5.86 -3.45,5.40 -4.36,4.94 -5.07,4.21 -5.78,3.48 -6.22,2.57 -6.67,1.65 -6.79,0.64 -6.92,-0.36 -6.72,-1.36 -6.52,-2.35 -6.01,-3.23 -5.50,-4.11 -4.74,-4.79 -3.97,-5.46 -3.03,-5.85 -2.09,-6.24 -1.08,-6.32 -0.06,-6.39 0.91,-6.13 1.90,-5.88 2.75,-5.32 3.60,-4.76 4.23,-3.96 4.86,-3.16 5.20,-2.21 5.54,-1.25 5.56,-0.23 5.58,0.78 5.27,1.75 4.96,2.72 4.36,3.54 3.76,4.36 2.92,4.94 2.09,5.53 1.11,5.82 0.14,6.11 -0.87,6.07 -1.89,6.03 -0.16,5.89 1.55,5.76 0.81,5.94 0.07,6.11 -0.68,6.11 -1.43,6.10 -2.17,5.92 -2.90,5.73 -3.57,5.38 -4.24,5.02 -4.81,4.51 -5.37,4.01 -5.80,3.38 -6.22,2.75 -6.49,2.04 -6.75,1.33 -6.84,0.58 -6.93,-0.16 -6.83,-0.92 -6.73,-1.67 -6.46,-2.38 -6.19,-3.08 -5.75,-3.70 -5.32,-4.33 -4.75,-4.82 -4.18,-5.32 -3.50,-5.67 -2.83,-6.02 -3.18,-5.68 -3.52,-5.33 -1.36,-7.07 0.79,-8.82 -0.62,-6.85 -2.03,-4.88 -0.46,-3.34 1.11,-1.79 3.77,-1.52 6.44,-1.25 7.54,-3.20 8.65,-5.15 8.21,-3.03 7.77,-0.92 5.84,1.22 3.91,3.37 3.22,3.70 2.52,4.04 2.00,4.28 1.48,4.52 0.92,4.63 0.35,4.75 -0.21,4.72 -0.78,4.69 -1.33,4.53 -1.89,4.37 -2.38,4.08 -2.88,3.79 -3.29,3.39 -3.70,2.99 -4.01,2.50 -4.31,2.01 -4.49,1.47 -4.67,0.92 -4.71,0.35 -4.75,-0.21 -4.66,-0.78 -4.56,-1.35 -4.34,-1.87 -4.11,-2.40 -3.76,-2.86 -3.41,-3.31 -2.97,-3.67 -2.52,-4.04 -2.52,-4.04 L -2.52,-4.04 Z"></path></g><g transform="translate(77.89530946438714 572.2202597710191) rotate(0 1.4439854269593013 -0.9343435115619627)" stroke="none"><path fill="#1e1e1e" d="M 1.53,-1.83 Q 1.53,-1.83 1.85,-1.62 2.17,-1.40 2.83,-0.38 3.49,0.63 3.63,1.69 3.77,2.76 3.75,2.96 3.72,3.17 3.68,3.51 3.64,3.84 3.52,4.16 3.40,4.47 3.21,4.75 3.02,5.03 2.77,5.26 2.51,5.48 2.21,5.64 1.91,5.80 1.58,5.88 1.26,5.96 0.92,5.96 0.58,5.96 0.25,5.88 -0.07,5.80 -0.37,5.64 -0.67,5.48 -0.92,5.26 -1.18,5.03 -1.37,4.75 -1.56,4.47 -1.68,4.16 -1.80,3.84 -1.84,3.51 -1.88,3.17 0.17,1.94 2.24,0.72 0.75,1.01 -0.73,1.30 0.26,0.76 1.26,0.21 0.20,1.21 -0.84,2.20 -0.53,0.74 -0.22,-0.71 0.24,-1.72 0.71,-2.74 1.66,-2.84 2.62,-2.95 2.25,-2.53 1.87,-2.11 1.39,-1.83 0.90,-1.55 0.35,-1.44 -0.19,-1.32 -0.74,-1.39 -1.30,-1.47 -1.80,-1.71 -2.31,-1.95 -2.71,-2.35 -3.11,-2.74 -3.36,-3.24 -3.62,-3.74 -3.70,-4.29 -3.78,-4.85 -3.68,-5.40 -3.58,-5.95 -3.30,-6.44 -3.03,-6.93 -2.62,-7.31 -2.21,-7.69 -1.69,-7.92 -1.18,-8.14 -0.62,-8.19 -0.06,-8.24 0.47,-8.11 1.02,-7.98 1.49,-7.69 1.97,-7.39 2.32,-6.96 2.68,-6.52 2.88,-6.00 3.08,-5.47 3.10,-4.91 3.12,-4.35 2.96,-3.81 2.80,-3.28 2.47,-2.82 2.15,-2.36 1.70,-2.03 1.25,-1.70 0.71,-1.53 0.18,-1.36 -0.37,-1.37 -0.93,-1.38 -1.46,-1.57 -1.99,-1.76 -2.43,-2.10 -2.87,-2.45 -3.18,-2.92 -3.48,-3.39 -3.62,-3.93 -3.76,-4.48 -3.72,-5.03 -3.68,-5.59 -3.47,-6.11 -3.25,-6.63 -3.25,-6.63 -3.25,-6.63 0.78,-7.10 4.82,-7.58 5.72,-5.76 6.63,-3.95 6.57,-2.85 6.51,-1.76 6.18,-0.72 5.85,0.30 5.49,1.39 5.13,2.47 4.76,3.52 4.39,4.56 3.35,5.00 2.31,5.45 1.01,5.57 -0.28,5.68 1.72,4.43 3.72,3.17 3.68,3.51 3.64,3.84 3.52,4.16 3.40,4.47 3.21,4.75 3.02,5.03 2.77,5.26 2.51,5.48 2.21,5.64 1.91,5.80 1.58,5.88 1.26,5.96 0.92,5.96 0.58,5.96 0.25,5.88 -0.07,5.80 -0.37,5.64 -0.67,5.48 -0.92,5.26 -1.18,5.03 -1.37,4.75 -1.56,4.47 -1.68,4.16 -1.80,3.84 -1.84,3.51 -1.88,3.17 -1.44,2.77 -1.00,2.38 -1.26,2.11 -1.53,1.83 -1.72,1.62 -1.92,1.41 -2.06,1.16 -2.20,0.91 -2.28,0.63 -2.36,0.35 -2.37,0.07 -2.38,-0.21 -2.32,-0.49 -2.26,-0.78 -2.13,-1.03 -2.00,-1.29 -1.82,-1.52 -1.63,-1.74 -1.40,-1.91 -1.17,-2.08 -0.90,-2.19 -0.64,-2.30 -0.35,-2.34 -0.07,-2.39 0.21,-2.36 0.50,-2.33 0.77,-2.24 1.04,-2.15 1.28,-1.99 1.53,-1.83 1.53,-1.83 L 1.53,-1.83 Z"></path></g><g transform="translate(295.4532584594887 435.2371241063607) rotate(0 2.637161710756118 68.34952213350266)" stroke="none"><path fill="#1e1e1e" d="M 5.24,-0.39 Q 5.24,-0.39 5.46,1.84 5.67,4.07 5.93,6.66 6.18,9.25 6.37,12.07 6.56,14.89 6.94,17.43 7.32,19.97 7.51,23.09 7.70,26.20 8.04,29.45 8.38,32.70 8.47,34.97 8.55,37.24 8.63,39.83 8.70,42.42 8.77,44.93 8.84,47.44 8.89,49.78 8.95,52.13 9.19,54.56 9.44,57.00 9.56,59.21 9.67,61.42 9.70,63.66 9.73,65.90 10.03,68.70 10.33,71.51 10.66,74.10 10.98,76.70 11.02,79.08 11.07,81.47 11.07,84.26 11.07,87.05 11.01,89.48 10.96,91.91 11.33,94.31 11.70,96.70 11.71,99.07 11.73,101.44 11.73,103.84 11.73,106.24 11.73,108.40 11.74,110.55 12.02,112.79 12.31,115.03 12.33,117.32 12.35,119.61 12.35,122.01 12.35,124.41 12.35,126.77 12.36,129.13 12.37,131.29 12.38,133.46 12.60,134.31 12.82,135.17 12.82,136.41 12.82,137.66 12.43,138.84 12.03,140.02 11.28,141.01 10.53,142.00 9.50,142.70 8.47,143.40 7.27,143.74 6.07,144.07 4.82,144.01 3.58,143.94 2.42,143.48 1.27,143.02 0.32,142.22 -0.63,141.41 -1.27,140.35 -1.91,139.28 -2.18,138.07 -2.45,136.85 -2.32,135.61 -2.19,134.37 -1.66,133.24 -1.14,132.11 -0.29,131.21 0.56,130.30 1.66,129.72 2.76,129.13 3.98,128.93 5.21,128.72 6.44,128.92 7.67,129.12 8.77,129.71 9.87,130.29 10.73,131.19 11.59,132.09 12.11,133.22 12.64,134.35 12.77,135.59 12.91,136.83 12.64,138.05 12.38,139.26 11.74,140.33 11.10,141.40 10.15,142.21 9.20,143.01 8.05,143.48 6.89,143.94 5.65,144.01 4.40,144.08 3.20,143.74 2.00,143.41 0.97,142.71 -0.05,142.02 -0.81,141.03 -1.56,140.04 -1.96,138.86 -2.36,137.68 -2.36,137.68 -2.36,137.68 -2.67,133.84 -2.99,130.00 -2.98,127.75 -2.97,125.50 -2.97,123.24 -2.97,120.98 -2.97,118.22 -2.97,115.46 -3.25,113.04 -3.53,110.62 -3.53,108.43 -3.53,106.24 -3.53,103.84 -3.52,101.44 -3.14,99.06 -2.76,96.67 -3.41,93.41 -4.06,90.16 -4.05,87.80 -4.04,85.44 -3.28,82.95 -2.51,80.47 -3.54,77.17 -4.56,73.86 -4.81,71.74 -5.06,69.62 -5.05,67.28 -5.03,64.95 -4.87,62.41 -4.71,59.88 -5.10,57.70 -5.49,55.53 -5.44,52.95 -5.39,50.37 -5.34,48.22 -5.29,46.07 -5.22,43.69 -5.15,41.31 -5.08,38.78 -5.01,36.26 -4.99,33.64 -4.96,31.02 -5.16,28.64 -5.36,26.25 -5.29,23.31 -5.21,20.37 -5.30,17.64 -5.40,14.91 -5.25,12.22 -5.10,9.52 -5.05,7.20 -4.99,4.87 -5.12,2.63 -5.24,0.39 -5.21,-0.23 -5.19,-0.87 -5.01,-1.48 -4.83,-2.08 -4.51,-2.63 -4.19,-3.18 -3.74,-3.63 -3.30,-4.09 -2.76,-4.43 -2.23,-4.76 -1.62,-4.96 -1.02,-5.16 -0.39,-5.21 0.24,-5.25 0.86,-5.15 1.49,-5.04 2.07,-4.79 2.65,-4.54 3.16,-4.15 3.66,-3.77 4.06,-3.28 4.46,-2.78 4.73,-2.21 5.00,-1.63 5.12,-1.01 5.24,-0.39 5.24,-0.39 L 5.24,-0.39 Z"></path></g><g transform="translate(304.1233954001745 573.0128280957117) rotate(0 2.790624728786156 2.651093492346888)" stroke="none"><path fill="#1e1e1e" d="M 2.85,-3.80 Q 2.85,-3.80 3.55,-3.39 4.25,-2.97 5.91,-1.00 7.58,0.95 7.55,3.57 7.53,6.18 5.69,8.12 3.86,10.05 0.89,9.60 -2.08,9.15 -3.40,7.17 -4.72,5.20 -3.59,2.00 -2.46,-1.19 -0.40,-2.44 1.65,-3.68 4.24,-3.43 6.83,-3.17 8.93,-1.07 11.04,1.02 10.73,3.99 10.42,6.95 8.80,8.40 7.18,9.85 5.16,10.82 3.14,11.79 0.67,11.10 -1.79,10.41 -3.46,7.89 -5.12,5.37 -4.49,1.88 -3.86,-1.61 -1.56,-3.13 0.74,-4.65 4.03,-4.26 7.33,-3.87 9.11,-2.34 10.89,-0.82 10.56,1.18 10.23,3.20 10.32,4.03 10.40,4.87 10.28,5.70 10.17,6.53 9.86,7.31 9.54,8.09 9.05,8.78 8.56,9.46 7.92,10.00 7.28,10.55 6.53,10.93 5.78,11.30 4.96,11.49 4.14,11.67 3.30,11.66 2.46,11.64 1.65,11.43 0.84,11.21 0.10,10.81 -0.63,10.40 -1.24,9.83 -1.86,9.26 -2.33,8.56 -2.79,7.86 -3.07,7.07 -3.36,6.28 -1.07,8.81 1.21,11.35 0.22,10.82 -0.77,10.29 -1.55,9.48 -2.32,8.66 -2.80,7.63 -3.27,6.61 -3.40,5.49 -3.52,4.37 -3.28,3.27 -3.04,2.17 -2.46,1.20 -1.88,0.23 -1.02,-0.49 -0.16,-1.22 0.88,-1.64 1.93,-2.06 3.05,-2.12 4.18,-2.18 5.27,-1.88 6.35,-1.58 7.29,-0.95 8.22,-0.32 8.90,0.57 9.59,1.47 9.95,2.54 10.31,3.60 10.31,4.73 10.31,5.86 9.95,6.93 9.59,8.00 8.91,8.90 8.23,9.80 7.30,10.43 6.36,11.06 5.28,11.37 4.19,11.67 3.06,11.61 1.94,11.55 0.89,11.13 -0.15,10.72 -1.01,9.99 -1.87,9.26 -2.45,8.29 -3.03,7.32 -3.28,6.22 -3.52,5.12 -3.40,4.00 -3.28,2.88 -2.80,1.86 -2.33,0.83 -1.56,0.01 -0.78,-0.80 0.20,-1.33 1.20,-1.86 2.31,-2.04 3.43,-2.22 6.83,0.48 10.23,3.20 10.32,4.03 10.40,4.87 10.28,5.70 10.17,6.53 9.86,7.31 9.54,8.09 9.05,8.78 8.56,9.46 7.92,10.00 7.28,10.55 6.53,10.93 5.78,11.30 4.96,11.49 4.14,11.67 3.30,11.66 2.46,11.64 1.65,11.43 0.84,11.21 0.10,10.81 -0.62,10.40 -1.24,9.83 -1.86,9.26 -2.33,8.56 -2.79,7.86 -3.07,7.07 -3.36,6.28 -2.19,6.20 -1.02,6.12 1.90,7.09 4.83,8.06 6.44,5.87 8.05,3.68 6.80,1.77 5.56,-0.13 3.34,-0.39 1.13,-0.66 0.03,1.50 -1.06,3.66 0.86,5.37 2.80,7.08 5.36,6.57 7.92,6.06 5.34,7.33 2.76,8.60 4.19,7.01 5.61,5.42 4.89,2.71 4.18,0.01 1.94,0.15 -0.28,0.28 -0.98,2.59 -1.68,4.90 -2.26,4.35 -2.85,3.80 -3.26,3.40 -3.68,3.01 -3.98,2.52 -4.29,2.04 -4.47,1.49 -4.66,0.95 -4.70,0.38 -4.75,-0.18 -4.66,-0.75 -4.57,-1.31 -4.34,-1.84 -4.12,-2.37 -3.77,-2.83 -3.43,-3.29 -2.98,-3.65 -2.54,-4.01 -2.02,-4.26 -1.51,-4.51 -0.94,-4.62 -0.38,-4.74 0.18,-4.71 0.75,-4.69 1.31,-4.53 1.86,-4.37 2.35,-4.09 2.85,-3.80 2.85,-3.80 L 2.85,-3.80 Z"></path></g><g transform="translate(298.47666334405 574.7952355603675) rotate(0 -0.9900427161001062 -2.970128148300489)" stroke="none"><path fill="#1e1e1e" d="M -2.52,4.04 Q -2.52,4.04 -3.22,3.70 -3.91,3.37 -5.84,1.22 -7.77,-0.92 -8.21,-3.03 -8.65,-5.15 -7.54,-3.20 -6.44,-1.25 -3.77,-1.52 -1.11,-1.79 0.46,-3.34 2.03,-4.88 0.62,-6.85 -0.79,-8.82 1.36,-7.07 3.52,-5.33 3.18,-5.68 2.83,-6.02 3.50,-5.67 4.18,-5.32 4.75,-4.82 5.32,-4.33 5.75,-3.70 6.19,-3.08 6.46,-2.38 6.73,-1.67 6.83,-0.92 6.93,-0.16 6.84,0.58 6.75,1.33 6.49,2.04 6.22,2.75 5.80,3.38 5.37,4.01 4.81,4.51 4.24,5.02 3.57,5.38 2.90,5.73 2.17,5.92 1.43,6.10 0.68,6.11 -0.07,6.11 -0.81,5.94 -1.55,5.76 -0.84,5.93 -0.14,6.11 -1.12,5.82 -2.09,5.53 -2.92,4.94 -3.76,4.36 -4.36,3.54 -4.96,2.72 -5.27,1.75 -5.58,0.78 -5.56,-0.23 -5.54,-1.25 -5.20,-2.21 -4.86,-3.17 -4.23,-3.97 -3.60,-4.77 -2.75,-5.32 -1.89,-5.88 -0.91,-6.13 0.07,-6.39 1.08,-6.32 2.10,-6.24 3.03,-5.85 3.97,-5.46 4.74,-4.78 5.50,-4.11 6.01,-3.23 6.52,-2.35 6.72,-1.35 6.92,-0.36 6.79,0.64 6.67,1.65 6.22,2.57 5.78,3.48 5.07,4.21 4.36,4.94 3.45,5.40 2.54,5.86 1.53,6.01 0.53,6.15 -0.46,5.97 -1.46,5.79 -2.36,5.30 -3.25,4.81 -3.93,4.05 -4.62,3.30 -5.03,2.37 -5.44,1.44 -5.53,0.43 -5.63,-0.57 -5.39,-1.56 -5.15,-2.55 -4.61,-3.42 -4.07,-4.28 -3.29,-4.92 -2.50,-5.57 -1.55,-5.93 -0.60,-6.29 1.11,-6.16 2.83,-6.02 3.50,-5.67 4.18,-5.32 4.75,-4.83 5.32,-4.33 5.75,-3.70 6.19,-3.08 6.46,-2.38 6.73,-1.67 6.83,-0.92 6.93,-0.17 6.84,0.58 6.75,1.33 6.49,2.04 6.22,2.75 5.80,3.38 5.37,4.01 4.81,4.51 4.24,5.02 3.57,5.37 2.91,5.73 2.17,5.92 1.44,6.10 0.68,6.11 -0.07,6.11 -0.81,5.94 -1.55,5.76 -3.63,3.83 -5.71,1.89 -7.13,-0.03 -8.56,-1.97 -8.89,-4.28 -9.23,-6.58 -7.56,-8.29 -5.89,-10.00 -3.00,-10.22 -0.10,-10.44 0.60,-7.72 1.31,-4.99 1.91,-4.51 2.52,-4.04 2.97,-3.67 3.41,-3.31 3.76,-2.86 4.11,-2.40 4.34,-1.87 4.56,-1.34 4.66,-0.78 4.75,-0.21 4.71,0.35 4.67,0.92 4.49,1.47 4.31,2.01 4.01,2.50 3.70,2.99 3.29,3.39 2.88,3.79 2.38,4.08 1.89,4.37 1.33,4.53 0.78,4.69 0.21,4.72 -0.35,4.75 -0.92,4.63 -1.48,4.52 -2.00,4.28 -2.52,4.03 -2.52,4.04 L -2.52,4.04 Z"></path></g><g transform="translate(295.90075250150784 573.6560972805853) rotate(0 -1.4439854269593297 -0.9343435115619627)" stroke="none"><path fill="#1e1e1e" d="M 1.53,1.83 Q 1.53,1.83 1.26,2.11 1.00,2.38 1.44,2.77 1.88,3.17 1.84,3.51 1.80,3.84 1.68,4.16 1.56,4.47 1.37,4.75 1.18,5.03 0.92,5.26 0.67,5.48 0.37,5.64 0.07,5.80 -0.25,5.88 -0.58,5.96 -0.92,5.96 -1.26,5.96 -1.58,5.88 -1.91,5.80 -2.21,5.64 -2.51,5.48 -2.77,5.26 -3.02,5.03 -3.21,4.75 -3.40,4.47 -3.52,4.16 -3.64,3.84 -3.68,3.51 -3.72,3.17 -1.72,4.43 0.28,5.68 -1.01,5.57 -2.31,5.45 -3.35,5.00 -4.39,4.56 -4.76,3.52 -5.13,2.47 -5.49,1.39 -5.85,0.30 -6.18,-0.72 -6.51,-1.76 -6.57,-2.85 -6.63,-3.95 -5.72,-5.76 -4.82,-7.58 -0.78,-7.10 3.25,-6.63 3.47,-6.11 3.68,-5.59 3.72,-5.03 3.76,-4.47 3.62,-3.93 3.48,-3.39 3.18,-2.92 2.87,-2.45 2.43,-2.10 1.99,-1.75 1.46,-1.57 0.93,-1.38 0.37,-1.37 -0.18,-1.36 -0.71,-1.53 -1.25,-1.70 -1.70,-2.03 -2.15,-2.36 -2.47,-2.82 -2.80,-3.28 -2.96,-3.82 -3.12,-4.35 -3.10,-4.91 -3.08,-5.47 -2.88,-6.00 -2.68,-6.52 -2.32,-6.96 -1.97,-7.39 -1.49,-7.69 -1.02,-7.98 -0.47,-8.11 0.06,-8.24 0.62,-8.19 1.18,-8.14 1.69,-7.92 2.21,-7.69 2.62,-7.31 3.03,-6.93 3.31,-6.44 3.58,-5.95 3.68,-5.40 3.78,-4.85 3.70,-4.29 3.62,-3.74 3.36,-3.24 3.11,-2.74 2.71,-2.35 2.31,-1.95 1.80,-1.71 1.30,-1.47 0.74,-1.39 0.18,-1.32 -0.35,-1.44 -0.90,-1.55 -1.39,-1.83 -1.88,-2.11 -2.25,-2.53 -2.62,-2.95 -2.62,-2.95 -2.62,-2.95 -1.66,-2.84 -0.71,-2.74 -0.24,-1.72 0.22,-0.71 0.53,0.74 0.84,2.20 -0.20,1.21 -1.26,0.21 -0.26,0.76 0.73,1.30 -0.75,1.01 -2.24,0.72 -0.17,1.94 1.88,3.17 1.84,3.51 1.80,3.84 1.68,4.16 1.56,4.47 1.37,4.75 1.18,5.03 0.92,5.26 0.67,5.48 0.37,5.64 0.07,5.80 -0.25,5.88 -0.58,5.96 -0.92,5.96 -1.26,5.96 -1.58,5.88 -1.91,5.80 -2.21,5.64 -2.51,5.48 -2.77,5.26 -3.02,5.03 -3.21,4.75 -3.40,4.47 -3.52,4.16 -3.64,3.84 -3.68,3.51 -3.72,3.17 -3.75,2.96 -3.77,2.76 -3.63,1.69 -3.49,0.63 -2.83,-0.38 -2.17,-1.40 -1.85,-1.62 -1.53,-1.83 -1.28,-1.99 -1.04,-2.15 -0.77,-2.24 -0.50,-2.33 -0.21,-2.36 0.07,-2.39 0.35,-2.34 0.64,-2.30 0.90,-2.19 1.17,-2.08 1.40,-1.91 1.63,-1.74 1.82,-1.51 2.00,-1.29 2.13,-1.03 2.26,-0.77 2.32,-0.49 2.38,-0.21 2.37,0.07 2.36,0.36 2.28,0.63 2.20,0.91 2.06,1.16 1.92,1.41 1.72,1.62 1.53,1.83 1.53,1.83 L 1.53,1.83 Z"></path></g><g transform="translate(209.28764855856951 354.25800408279247) rotate(0 0.8115896862255454 -0.811589686225517)" stroke="none"><path fill="#1e1e1e" d="M -3.20,-3.20 Q -3.20,-3.20 -2.79,-3.72 -2.38,-4.25 -1.76,-4.69 -1.15,-5.13 -0.42,-5.36 0.29,-5.58 1.05,-5.56 1.81,-5.54 2.53,-5.28 3.24,-5.02 3.83,-4.54 4.42,-4.06 4.83,-3.42 5.24,-2.78 5.42,-2.05 5.61,-1.31 5.55,-0.55 5.48,0.20 5.18,0.89 4.88,1.59 4.38,2.16 3.87,2.72 3.21,3.10 2.55,3.47 1.80,3.61 1.05,3.75 0.30,3.65 -0.44,3.55 -1.12,3.21 -1.80,2.87 -2.34,2.34 -2.88,1.80 -3.21,1.12 -3.55,0.44 -3.65,-0.30 -3.75,-1.06 -3.61,-1.80 -3.47,-2.55 -3.09,-3.21 -2.72,-3.87 -2.15,-4.38 -1.59,-4.88 -0.89,-5.18 -0.19,-5.48 0.55,-5.55 1.31,-5.61 2.05,-5.42 2.78,-5.24 3.42,-4.83 4.06,-4.42 4.54,-3.83 5.02,-3.24 5.28,-2.52 5.54,-1.81 5.56,-1.05 5.58,-0.29 5.36,0.42 5.13,1.15 4.69,1.77 4.25,2.38 4.25,2.38 4.25,2.38 3.72,2.79 3.20,3.20 2.77,3.53 2.34,3.87 1.84,4.09 1.34,4.32 0.81,4.42 0.27,4.51 -0.27,4.48 -0.81,4.45 -1.33,4.29 -1.85,4.12 -2.32,3.84 -2.79,3.56 -3.17,3.17 -3.56,2.79 -3.84,2.32 -4.12,1.85 -4.29,1.33 -4.45,0.81 -4.48,0.27 -4.51,-0.27 -4.42,-0.81 -4.32,-1.34 -4.09,-1.84 -3.87,-2.34 -3.53,-2.77 -3.20,-3.20 -3.20,-3.20 L -3.20,-3.20 Z"></path></g></svg>