<svg version="1.1" xmlns="http://www.w3.org/2000/svg" viewBox="0 0 450.29567755087805 537.3505322833264" width="1350.8870326526342" height="1612.0515968499792" filter="invert(93%) hue-rotate(180deg)">
  <!-- svg-source:excalidraw -->
  
  <defs>
    <style class="style-fonts">
      
    </style>
    
  </defs>
  <g stroke-linecap="round"><g transform="translate(11.858503374126428 396.30565534802327) rotate(0 104.64132290896814 65.2112592041396)"><path d="M-1 -1.57 C65.92 40.49, 138.17 83.11, 207.65 129.01 M1.37 -0.13 C71.29 45.54, 143.89 89.88, 209.07 131.04" stroke="#1e1e1e" stroke-width="4" fill="none"></path></g></g><mask></mask><g stroke-linecap="round"><g transform="translate(219.11909464309713 524.7061192073369) rotate(0 105.65235018345089 -66.72780011586377)"><path d="M1.5 0.13 C77.94 -45.5, 151.05 -90.05, 214.4 -135.61 M1.02 0.95 C73.23 -45.27, 147.92 -92.27, 211.55 -132.37" stroke="#1e1e1e" stroke-width="4" fill="none"></path></g></g><mask></mask><g stroke-linecap="round"><g transform="translate(221.1411491920627 523.6950919328541) rotate(0 -0.5055136372413926 -125.3673820358652)"><path d="M-0.39 -2.83 C3.09 -98.21, -1.26 -201.55, -1.51 -252.29 M-1 -1.46 C-3.1 -58.67, -1.71 -118.59, 0.01 -249.37" stroke="#1e1e1e" stroke-width="4" fill="none"></path></g></g><mask></mask><g stroke-linecap="round"><g transform="translate(439.06771707026 390.641138770844) rotate(0 -2.0220545489655706 -123.85084112414108)"><path d="M-2.23 0.8 C-0.57 -88.72, -0.23 -175.4, -2.16 -245.05 M-0.64 0.14 C2.84 -69.23, 1.37 -139.13, -4.3 -248.02" stroke="#1e1e1e" stroke-width="4" fill="none"></path></g></g><mask></mask><g stroke-linecap="round"><g transform="translate(11.673955718410298 397.09047541907114) rotate(0 0 -125.8728956731066)"><path d="M-0.73 1.36 C-2.1 -77.05, -0.27 -152.96, 1.43 -253.97 M-0.62 1.56 C-2.06 -52.84, -2.16 -107.59, -0.06 -250.49" stroke="#1e1e1e" stroke-width="4" fill="none"></path></g></g><mask></mask><g stroke-linecap="round"><g transform="translate(13.848306783834289 147.3457128475134) rotate(0 104.64132290896814 65.2112592041396)"><path d="M-0.25 0.77 C80.64 47.73, 165.99 102.28, 211.84 130.37 M1.55 -0.1 C70.37 46.57, 141.52 90.98, 208.22 130.37" stroke="#1e1e1e" stroke-width="4" fill="none"></path></g></g><mask></mask><g stroke-linecap="round"><g transform="translate(221.108898052805 275.746176706827) rotate(0 105.65235018345089 -66.72780011586377)"><path d="M-1.27 -2.22 C69.36 -40.58, 134.71 -84.24, 212.67 -133.71 M-0.97 -0.54 C44.36 -30.64, 92.38 -60.15, 211.09 -133.95" stroke="#1e1e1e" stroke-width="4" fill="none"></path></g></g><mask></mask><g stroke-linecap="round"><g transform="translate(14.334993810786273 141.49074012717062) rotate(0 104.64132290896814 -65.2112592041396)"><path d="M2.37 1.04 C42.93 -30.13, 87.38 -52.71, 208.88 -131.03 M-0.9 -1.38 C74.15 -43.23, 146.76 -89.45, 209.26 -131.43" stroke="#1e1e1e" stroke-width="4" fill="none"></path></g></g><mask></mask><g stroke-linecap="round"><g transform="translate(221.59558507975703 13.090276267857007) rotate(0 105.65235018345089 66.72780011586377)"><path d="M-1.49 -3.09 C52.38 35.71, 108.61 66.17, 212.98 133.75 M0.81 1.09 C52.95 37.85, 107.27 70.42, 210.64 134.84" stroke="#1e1e1e" stroke-width="4" fill="none"></path></g></g><mask></mask><g stroke-linecap="round"><g transform="translate(10.847476099643643 197.13328227491493) rotate(0 103.63029563448535 60.15612283172564)"><path d="M-0.73 -2.82 C62.01 41.07, 128.86 73.88, 207.18 118.84 M-0.21 1.54 C68.15 34.12, 132.1 74.55, 206.84 121.57" stroke="#1e1e1e" stroke-width="4" fill="none"></path></g></g><mask></mask><g stroke-linecap="round"><g transform="translate(218.10806736861434 318.456555212849) rotate(0 108.17991836965786 -65.21125920413957)"><path d="M3 0.9 C57.21 -29.65, 113.77 -64.35, 213.37 -128.63 M-1.29 1.29 C53.89 -34.39, 107.51 -65.23, 216.23 -131.74" stroke="#1e1e1e" stroke-width="4" fill="none"></path></g></g><mask></mask></svg>