<svg id="visual" viewBox="0 0 900 600" width="900" height="600" xmlns="http://www.w3.org/2000/svg" xmlns:xlink="http://www.w3.org/1999/xlink" version="1.1"><rect x="0" y="0" width="900" height="600" fill="#0e5096"></rect><path d="M0 175L37.5 180.8C75 186.7 150 198.3 225 203.7C300 209 375 208 450 193.2C525 178.3 600 149.7 675 142.8C750 136 825 151 862.5 158.5L900 166L900 601L862.5 601C825 601 750 601 675 601C600 601 525 601 450 601C375 601 300 601 225 601C150 601 75 601 37.5 601L0 601Z" fill="#22599a"></path><path d="M0 234L37.5 242.5C75 251 150 268 225 276.3C300 284.7 375 284.3 450 276.3C525 268.3 600 252.7 675 250.2C750 247.7 825 258.3 862.5 263.7L900 269L900 601L862.5 601C825 601 750 601 675 601C600 601 525 601 450 601C375 601 300 601 225 601C150 601 75 601 37.5 601L0 601Z" fill="#2c64aa"></path><path d="M0 293L37.5 298.3C75 303.7 150 314.3 225 318.5C300 322.7 375 320.3 450 315.7C525 311 600 304 675 301.7C750 299.3 825 301.7 862.5 302.8L900 304L900 601L862.5 601C825 601 750 601 675 601C600 601 525 601 450 601C375 601 300 601 225 601C150 601 75 601 37.5 601L0 601Z" fill="#356fba"></path><path d="M0 371L37.5 367.3C75 363.7 150 356.3 225 359.7C300 363 375 377 450 386.3C525 395.7 600 400.3 675 401.7C750 403 825 401 862.5 400L900 399L900 601L862.5 601C825 601 750 601 675 601C600 601 525 601 450 601C375 601 300 601 225 601C150 601 75 601 37.5 601L0 601Z" fill="#3f7bca"></path><path d="M0 421L37.5 427.7C75 434.3 150 447.7 225 455.8C300 464 375 467 450 468.2C525 469.3 600 468.7 675 465.7C750 462.7 825 457.3 862.5 454.7L900 452L900 601L862.5 601C825 601 750 601 675 601C600 601 525 601 450 601C375 601 300 601 225 601C150 601 75 601 37.5 601L0 601Z" fill="#4886da"></path><path d="M0 488L37.5 491.7C75 495.3 150 502.7 225 509.7C300 516.7 375 523.3 450 523C525 522.7 600 515.3 675 514.7C750 514 825 520 862.5 523L900 526L900 601L862.5 601C825 601 750 601 675 601C600 601 525 601 450 601C375 601 300 601 225 601C150 601 75 601 37.5 601L0 601Z" fill="#5192eb"></path></svg>