<svg id="visual" viewBox="0 0 900 600" width="900" height="600" xmlns="http://www.w3.org/2000/svg" xmlns:xlink="http://www.w3.org/1999/xlink" version="1.1"><g stroke-width="1" stroke-linejoin="bevel"><path d="M473 315L517 393L597 283Z" fill="#100c44" stroke="#100c44"></path><path d="M517 393L574 415L597 283Z" fill="#22055d" stroke="#22055d"></path><path d="M597 283L514 183L473 315Z" fill="#0c0a36" stroke="#0c0a36"></path><path d="M574 415L695 325L597 283Z" fill="#1d0857" stroke="#1d0857"></path><path d="M597 283L637 196L514 183Z" fill="#0c0a36" stroke="#0c0a36"></path><path d="M361 424L465 466L517 393Z" fill="#0e0c3d" stroke="#0e0c3d"></path><path d="M517 393L572 484L574 415Z" fill="#0b0629" stroke="#0b0629"></path><path d="M465 466L572 484L517 393Z" fill="#1d0857" stroke="#1d0857"></path><path d="M574 415L667 429L695 325Z" fill="#0e0c3d" stroke="#0e0c3d"></path><path d="M572 484L667 429L574 415Z" fill="#1d0857" stroke="#1d0857"></path><path d="M717 231L637 196L597 283Z" fill="#280163" stroke="#280163"></path><path d="M514 183L379 266L473 315Z" fill="#0b0629" stroke="#0b0629"></path><path d="M473 315L361 424L517 393Z" fill="#100c44" stroke="#100c44"></path><path d="M621 117L484 138L514 183Z" fill="#280163" stroke="#280163"></path><path d="M514 183L368 188L379 266Z" fill="#0e0c3d" stroke="#0e0c3d"></path><path d="M695 325L717 231L597 283Z" fill="#280163" stroke="#280163"></path><path d="M379 266L361 424L473 315Z" fill="#0c0830" stroke="#0c0830"></path><path d="M572 484L711 473L667 429Z" fill="#100c44" stroke="#100c44"></path><path d="M667 429L711 473L695 325Z" fill="#1d0857" stroke="#1d0857"></path><path d="M695 325L835 291L717 231Z" fill="#0c0830" stroke="#0c0830"></path><path d="M484 138L368 188L514 183Z" fill="#0c0830" stroke="#0c0830"></path><path d="M275 323L294 404L361 424Z" fill="#130b4a" stroke="#130b4a"></path><path d="M700 85L621 117L637 196Z" fill="#0e0c3d" stroke="#0e0c3d"></path><path d="M637 196L621 117L514 183Z" fill="#0c0830" stroke="#0c0830"></path><path d="M275 323L361 424L379 266Z" fill="#0b0629" stroke="#0b0629"></path><path d="M361 424L363 522L465 466Z" fill="#1d0857" stroke="#1d0857"></path><path d="M524 0L433 89L484 138Z" fill="#0b0629" stroke="#0b0629"></path><path d="M484 138L433 89L368 188Z" fill="#130b4a" stroke="#130b4a"></path><path d="M433 89L333 166L368 188Z" fill="#180a51" stroke="#180a51"></path><path d="M368 188L333 166L379 266Z" fill="#180a51" stroke="#180a51"></path><path d="M326 513L363 522L361 424Z" fill="#280163" stroke="#280163"></path><path d="M465 466L519 600L572 484Z" fill="#0c0830" stroke="#0c0830"></path><path d="M572 484L692 600L711 473Z" fill="#22055d" stroke="#22055d"></path><path d="M333 166L275 323L379 266Z" fill="#100c44" stroke="#100c44"></path><path d="M395 600L519 600L465 466Z" fill="#1d0857" stroke="#1d0857"></path><path d="M519 600L577 600L572 484Z" fill="#130b4a" stroke="#130b4a"></path><path d="M294 404L326 513L361 424Z" fill="#090422" stroke="#090422"></path><path d="M363 522L395 600L465 466Z" fill="#280163" stroke="#280163"></path><path d="M717 231L700 85L637 196Z" fill="#100c44" stroke="#100c44"></path><path d="M621 117L524 0L484 138Z" fill="#130b4a" stroke="#130b4a"></path><path d="M831 425L835 291L695 325Z" fill="#0e0c3d" stroke="#0e0c3d"></path><path d="M717 231L829 90L700 85Z" fill="#22055d" stroke="#22055d"></path><path d="M835 291L826 221L717 231Z" fill="#180a51" stroke="#180a51"></path><path d="M800 499L831 425L711 473Z" fill="#280163" stroke="#280163"></path><path d="M711 473L831 425L695 325Z" fill="#22055d" stroke="#22055d"></path><path d="M766 600L800 499L711 473Z" fill="#1d0857" stroke="#1d0857"></path><path d="M281 600L395 600L363 522Z" fill="#0e0c3d" stroke="#0e0c3d"></path><path d="M577 600L692 600L572 484Z" fill="#280163" stroke="#280163"></path><path d="M637 0L524 0L621 117Z" fill="#1d0857" stroke="#1d0857"></path><path d="M433 89L275 110L333 166Z" fill="#130b4a" stroke="#130b4a"></path><path d="M700 85L637 0L621 117Z" fill="#090422" stroke="#090422"></path><path d="M693 0L637 0L700 85Z" fill="#130b4a" stroke="#130b4a"></path><path d="M524 0L437 0L433 89Z" fill="#0c0830" stroke="#0c0830"></path><path d="M304 0L275 110L433 89Z" fill="#090422" stroke="#090422"></path><path d="M194 176L196 319L275 323Z" fill="#0c0a36" stroke="#0c0a36"></path><path d="M194 176L275 323L333 166Z" fill="#0c0a36" stroke="#0c0a36"></path><path d="M275 323L196 319L294 404Z" fill="#130b4a" stroke="#130b4a"></path><path d="M172 510L281 600L326 513Z" fill="#100c44" stroke="#100c44"></path><path d="M692 600L766 600L711 473Z" fill="#0c0a36" stroke="#0c0a36"></path><path d="M900 389L835 291L831 425Z" fill="#280163" stroke="#280163"></path><path d="M900 389L900 298L835 291Z" fill="#280163" stroke="#280163"></path><path d="M835 291L900 226L826 221Z" fill="#22055d" stroke="#22055d"></path><path d="M830 0L693 0L700 85Z" fill="#090422" stroke="#090422"></path><path d="M900 389L831 425L900 510Z" fill="#100c44" stroke="#100c44"></path><path d="M829 90L717 231L826 221Z" fill="#180a51" stroke="#180a51"></path><path d="M900 510L831 425L800 499Z" fill="#280163" stroke="#280163"></path><path d="M900 298L900 226L835 291Z" fill="#100c44" stroke="#100c44"></path><path d="M900 136L829 90L826 221Z" fill="#090422" stroke="#090422"></path><path d="M172 510L326 513L294 404Z" fill="#1d0857" stroke="#1d0857"></path><path d="M326 513L281 600L363 522Z" fill="#0c0830" stroke="#0c0830"></path><path d="M275 110L194 176L333 166Z" fill="#100c44" stroke="#100c44"></path><path d="M123 383L161 376L107 303Z" fill="#130b4a" stroke="#130b4a"></path><path d="M196 319L161 376L294 404Z" fill="#100c44" stroke="#100c44"></path><path d="M900 600L900 510L800 499Z" fill="#0b0629" stroke="#0b0629"></path><path d="M437 0L304 0L433 89Z" fill="#22055d" stroke="#22055d"></path><path d="M275 110L229 65L194 176Z" fill="#0c0a36" stroke="#0c0a36"></path><path d="M900 226L900 136L826 221Z" fill="#100c44" stroke="#100c44"></path><path d="M829 90L830 0L700 85Z" fill="#100c44" stroke="#100c44"></path><path d="M304 0L229 65L275 110Z" fill="#0b0629" stroke="#0b0629"></path><path d="M161 376L172 510L294 404Z" fill="#180a51" stroke="#180a51"></path><path d="M107 303L161 376L196 319Z" fill="#22055d" stroke="#22055d"></path><path d="M161 376L123 383L172 510Z" fill="#0c0a36" stroke="#0c0a36"></path><path d="M107 303L196 319L113 215Z" fill="#0b0629" stroke="#0b0629"></path><path d="M900 0L830 0L829 90Z" fill="#180a51" stroke="#180a51"></path><path d="M113 215L196 319L194 176Z" fill="#0b0629" stroke="#0b0629"></path><path d="M87 62L113 215L194 176Z" fill="#0c0a36" stroke="#0c0a36"></path><path d="M766 600L900 600L800 499Z" fill="#280163" stroke="#280163"></path><path d="M107 512L172 510L123 383Z" fill="#130b4a" stroke="#130b4a"></path><path d="M107 512L166 600L172 510Z" fill="#0c0830" stroke="#0c0830"></path><path d="M172 510L166 600L281 600Z" fill="#0c0830" stroke="#0c0830"></path><path d="M0 437L107 512L123 383Z" fill="#280163" stroke="#280163"></path><path d="M304 0L190 0L229 65Z" fill="#1d0857" stroke="#1d0857"></path><path d="M229 65L87 62L194 176Z" fill="#0b0629" stroke="#0b0629"></path><path d="M900 136L900 0L829 90Z" fill="#0c0a36" stroke="#0c0a36"></path><path d="M0 600L101 600L107 512Z" fill="#180a51" stroke="#180a51"></path><path d="M107 512L101 600L166 600Z" fill="#130b4a" stroke="#130b4a"></path><path d="M113 215L0 279L107 303Z" fill="#280163" stroke="#280163"></path><path d="M107 303L0 437L123 383Z" fill="#0c0830" stroke="#0c0830"></path><path d="M190 0L87 62L229 65Z" fill="#0c0a36" stroke="#0c0a36"></path><path d="M0 216L0 279L113 215Z" fill="#090422" stroke="#090422"></path><path d="M0 279L0 437L107 303Z" fill="#0c0830" stroke="#0c0830"></path><path d="M0 110L0 216L113 215Z" fill="#090422" stroke="#090422"></path><path d="M0 437L0 466L107 512Z" fill="#280163" stroke="#280163"></path><path d="M190 0L83 0L87 62Z" fill="#0e0c3d" stroke="#0e0c3d"></path><path d="M87 62L0 110L113 215Z" fill="#280163" stroke="#280163"></path><path d="M0 0L0 110L87 62Z" fill="#180a51" stroke="#180a51"></path><path d="M0 466L0 600L107 512Z" fill="#0e0c3d" stroke="#0e0c3d"></path><path d="M83 0L0 0L87 62Z" fill="#090422" stroke="#090422"></path></g></svg>