<svg id="visual" viewBox="0 0 1920 1080" width="1920" height="1080" xmlns="http://www.w3.org/2000/svg" xmlns:xlink="http://www.w3.org/1999/xlink" version="1.1"><rect x="0" y="0" width="1920" height="1080" fill="#931C1C"></rect><path d="M0 568L274 531L549 485L823 573L1097 572L1371 495L1646 510L1920 518L1920 1081L1646 1081L1371 1081L1097 1081L823 1081L549 1081L274 1081L0 1081Z" fill="#f5730a"></path><path d="M0 632L274 614L549 591L823 570L1097 645L1371 644L1646 577L1920 691L1920 1081L1646 1081L1371 1081L1097 1081L823 1081L549 1081L274 1081L0 1081Z" fill="#df6009"></path><path d="M0 702L274 731L549 759L823 732L1097 722L1371 676L1646 764L1920 731L1920 1081L1646 1081L1371 1081L1097 1081L823 1081L549 1081L274 1081L0 1081Z" fill="#c94d08"></path><path d="M0 758L274 848L549 810L823 750L1097 788L1371 772L1646 809L1920 833L1920 1081L1646 1081L1371 1081L1097 1081L823 1081L549 1081L274 1081L0 1081Z" fill="#b33b06"></path><path d="M0 912L274 913L549 855L823 911L1097 905L1371 870L1646 897L1920 853L1920 1081L1646 1081L1371 1081L1097 1081L823 1081L549 1081L274 1081L0 1081Z" fill="#9d2804"></path><path d="M0 945L274 987L549 995L823 966L1097 971L1371 976L1646 993L1920 1012L1920 1081L1646 1081L1371 1081L1097 1081L823 1081L549 1081L274 1081L0 1081Z" fill="#871400"></path></svg>