<svg id="visual" viewBox="0 0 1920 1080" width="1920" height="1080" xmlns="http://www.w3.org/2000/svg" xmlns:xlink="http://www.w3.org/1999/xlink" version="1.1"><rect x="0" y="0" width="1920" height="1080" fill="#6d97e3"></rect><path d="M0 536L64 549.5C128 563 256 590 384 596.5C512 603 640 589 768 586.7C896 584.3 1024 593.7 1152 599.8C1280 606 1408 609 1536 607C1664 605 1792 598 1856 594.5L1920 591L1920 1081L1856 1081C1792 1081 1664 1081 1536 1081C1408 1081 1280 1081 1152 1081C1024 1081 896 1081 768 1081C640 1081 512 1081 384 1081C256 1081 128 1081 64 1081L0 1081Z" fill="#3569d7"></path><path d="M0 659L64 658.7C128 658.3 256 657.7 384 665.8C512 674 640 691 768 704.3C896 717.7 1024 727.3 1152 722.8C1280 718.3 1408 699.7 1536 701C1664 702.3 1792 723.7 1856 734.3L1920 745L1920 1081L1856 1081C1792 1081 1664 1081 1536 1081C1408 1081 1280 1081 1152 1081C1024 1081 896 1081 768 1081C640 1081 512 1081 384 1081C256 1081 128 1081 64 1081L0 1081Z" fill="#3463d0"></path><path d="M0 819L64 821.2C128 823.3 256 827.7 384 828.3C512 829 640 826 768 822.7C896 819.3 1024 815.7 1152 809.5C1280 803.3 1408 794.7 1536 792.5C1664 790.3 1792 794.7 1856 796.8L1920 799L1920 1081L1856 1081C1792 1081 1664 1081 1536 1081C1408 1081 1280 1081 1152 1081C1024 1081 896 1081 768 1081C640 1081 512 1081 384 1081C256 1081 128 1081 64 1081L0 1081Z" fill="#345dc9"></path><path d="M0 907L64 908.5C128 910 256 913 384 915.5C512 918 640 920 768 927C896 934 1024 946 1152 949C1280 952 1408 946 1536 939.3C1664 932.7 1792 925.3 1856 921.7L1920 918L1920 1081L1856 1081C1792 1081 1664 1081 1536 1081C1408 1081 1280 1081 1152 1081C1024 1081 896 1081 768 1081C640 1081 512 1081 384 1081C256 1081 128 1081 64 1081L0 1081Z" fill="#3358c2"></path></svg>