<svg id="visual" viewBox="0 0 1920 1080" width="1920" height="1080" xmlns="http://www.w3.org/2000/svg" xmlns:xlink="http://www.w3.org/1999/xlink" version="1.1"><rect x="0" y="0" width="1920" height="1080" fill="#6b0081"></rect><path d="M0 648L35.5 602.7C71 557.3 142 466.7 213.2 429.5C284.3 392.3 355.7 408.7 426.8 368C498 327.3 569 229.7 640 191.5C711 153.3 782 174.7 853.2 265.8C924.3 357 995.7 518 1066.8 543.2C1138 568.3 1209 457.7 1280 450.3C1351 443 1422 539 1493.2 530.8C1564.3 522.7 1635.7 410.3 1706.8 403.3C1778 396.3 1849 494.7 1884.5 543.8L1920 593L1920 1081L1884.5 1081C1849 1081 1778 1081 1706.8 1081C1635.7 1081 1564.3 1081 1493.2 1081C1422 1081 1351 1081 1280 1081C1209 1081 1138 1081 1066.8 1081C995.7 1081 924.3 1081 853.2 1081C782 1081 711 1081 640 1081C569 1081 498 1081 426.8 1081C355.7 1081 284.3 1081 213.2 1081C142 1081 71 1081 35.5 1081L0 1081Z" fill="#cb00c9"></path><path d="M0 508L35.5 501.5C71 495 142 482 213.2 433.8C284.3 385.7 355.7 302.3 426.8 350C498 397.7 569 576.3 640 590.8C711 605.3 782 455.7 853.2 393.7C924.3 331.7 995.7 357.3 1066.8 428C1138 498.7 1209 614.3 1280 662.3C1351 710.3 1422 690.7 1493.2 637.5C1564.3 584.3 1635.7 497.7 1706.8 494.7C1778 491.7 1849 572.3 1884.5 612.7L1920 653L1920 1081L1884.5 1081C1849 1081 1778 1081 1706.8 1081C1635.7 1081 1564.3 1081 1493.2 1081C1422 1081 1351 1081 1280 1081C1209 1081 1138 1081 1066.8 1081C995.7 1081 924.3 1081 853.2 1081C782 1081 711 1081 640 1081C569 1081 498 1081 426.8 1081C355.7 1081 284.3 1081 213.2 1081C142 1081 71 1081 35.5 1081L0 1081Z" fill="#bb00c6"></path><path d="M0 458L35.5 509.2C71 560.3 142 662.7 213.2 643.2C284.3 623.7 355.7 482.3 426.8 431.5C498 380.7 569 420.3 640 493.2C711 566 782 672 853.2 680.2C924.3 688.3 995.7 598.7 1066.8 594.8C1138 591 1209 673 1280 674.2C1351 675.3 1422 595.7 1493.2 602C1564.3 608.3 1635.7 700.7 1706.8 732.8C1778 765 1849 737 1884.5 723L1920 709L1920 1081L1884.5 1081C1849 1081 1778 1081 1706.8 1081C1635.7 1081 1564.3 1081 1493.2 1081C1422 1081 1351 1081 1280 1081C1209 1081 1138 1081 1066.8 1081C995.7 1081 924.3 1081 853.2 1081C782 1081 711 1081 640 1081C569 1081 498 1081 426.8 1081C355.7 1081 284.3 1081 213.2 1081C142 1081 71 1081 35.5 1081L0 1081Z" fill="#ab00c3"></path><path d="M0 804L35.5 796.8C71 789.7 142 775.3 213.2 720.3C284.3 665.3 355.7 569.7 426.8 585.5C498 601.3 569 728.7 640 753.3C711 778 782 700 853.2 689.5C924.3 679 995.7 736 1066.8 759.8C1138 783.7 1209 774.3 1280 777.5C1351 780.7 1422 796.3 1493.2 795.8C1564.3 795.3 1635.7 778.7 1706.8 720C1778 661.3 1849 560.7 1884.5 510.3L1920 460L1920 1081L1884.5 1081C1849 1081 1778 1081 1706.8 1081C1635.7 1081 1564.3 1081 1493.2 1081C1422 1081 1351 1081 1280 1081C1209 1081 1138 1081 1066.8 1081C995.7 1081 924.3 1081 853.2 1081C782 1081 711 1081 640 1081C569 1081 498 1081 426.8 1081C355.7 1081 284.3 1081 213.2 1081C142 1081 71 1081 35.5 1081L0 1081Z" fill="#9a00bf"></path><path d="M0 890L35.5 836.2C71 782.3 142 674.7 213.2 626.5C284.3 578.3 355.7 589.7 426.8 625.8C498 662 569 723 640 740.5C711 758 782 732 853.2 696.2C924.3 660.3 995.7 614.7 1066.8 621.5C1138 628.3 1209 687.7 1280 702.3C1351 717 1422 687 1493.2 690.3C1564.3 693.7 1635.7 730.3 1706.8 715.2C1778 700 1849 633 1884.5 599.5L1920 566L1920 1081L1884.5 1081C1849 1081 1778 1081 1706.8 1081C1635.7 1081 1564.3 1081 1493.2 1081C1422 1081 1351 1081 1280 1081C1209 1081 1138 1081 1066.8 1081C995.7 1081 924.3 1081 853.2 1081C782 1081 711 1081 640 1081C569 1081 498 1081 426.8 1081C355.7 1081 284.3 1081 213.2 1081C142 1081 71 1081 35.5 1081L0 1081Z" fill="#8a00bb"></path><path d="M0 722L35.5 744.7C71 767.3 142 812.7 213.2 826.2C284.3 839.7 355.7 821.3 426.8 836.7C498 852 569 901 640 900.2C711 899.3 782 848.7 853.2 835.8C924.3 823 995.7 848 1066.8 863.7C1138 879.3 1209 885.7 1280 875C1351 864.3 1422 836.7 1493.2 837C1564.3 837.3 1635.7 865.7 1706.8 888.7C1778 911.7 1849 929.3 1884.5 938.2L1920 947L1920 1081L1884.5 1081C1849 1081 1778 1081 1706.8 1081C1635.7 1081 1564.3 1081 1493.2 1081C1422 1081 1351 1081 1280 1081C1209 1081 1138 1081 1066.8 1081C995.7 1081 924.3 1081 853.2 1081C782 1081 711 1081 640 1081C569 1081 498 1081 426.8 1081C355.7 1081 284.3 1081 213.2 1081C142 1081 71 1081 35.5 1081L0 1081Z" fill="#7800b7"></path><path d="M0 877L35.5 857.7C71 838.3 142 799.7 213.2 789.2C284.3 778.7 355.7 796.3 426.8 809C498 821.7 569 829.3 640 851.7C711 874 782 911 853.2 927.7C924.3 944.3 995.7 940.7 1066.8 947.5C1138 954.3 1209 971.7 1280 944.3C1351 917 1422 845 1493.2 807C1564.3 769 1635.7 765 1706.8 776.3C1778 787.7 1849 814.3 1884.5 827.7L1920 841L1920 1081L1884.5 1081C1849 1081 1778 1081 1706.8 1081C1635.7 1081 1564.3 1081 1493.2 1081C1422 1081 1351 1081 1280 1081C1209 1081 1138 1081 1066.8 1081C995.7 1081 924.3 1081 853.2 1081C782 1081 711 1081 640 1081C569 1081 498 1081 426.8 1081C355.7 1081 284.3 1081 213.2 1081C142 1081 71 1081 35.5 1081L0 1081Z" fill="#6600b3"></path><path d="M0 895L35.5 910.3C71 925.7 142 956.3 213.2 976.5C284.3 996.7 355.7 1006.3 426.8 1006.8C498 1007.3 569 998.7 640 973.2C711 947.7 782 905.3 853.2 917C924.3 928.7 995.7 994.3 1066.8 1028.7C1138 1063 1209 1066 1280 1033.3C1351 1000.7 1422 932.3 1493.2 911C1564.3 889.7 1635.7 915.3 1706.8 928C1778 940.7 1849 940.3 1884.5 940.2L1920 940L1920 1081L1884.5 1081C1849 1081 1778 1081 1706.8 1081C1635.7 1081 1564.3 1081 1493.2 1081C1422 1081 1351 1081 1280 1081C1209 1081 1138 1081 1066.8 1081C995.7 1081 924.3 1081 853.2 1081C782 1081 711 1081 640 1081C569 1081 498 1081 426.8 1081C355.7 1081 284.3 1081 213.2 1081C142 1081 71 1081 35.5 1081L0 1081Z" fill="#5100af"></path></svg>