<svg id="visual" viewBox="0 0 1920 1080" width="1920" height="1080" xmlns="http://www.w3.org/2000/svg" xmlns:xlink="http://www.w3.org/1999/xlink" version="1.1"><path d="M0 55L83 55L83 77L167 77L167 55L250 55L250 55L334 55L334 55L417 55L417 66L501 66L501 66L584 66L584 55L668 55L668 44L751 44L751 44L835 44L835 44L918 44L918 77L1002 77L1002 44L1085 44L1085 44L1169 44L1169 77L1252 77L1252 44L1336 44L1336 44L1419 44L1419 66L1503 66L1503 66L1586 66L1586 77L1670 77L1670 55L1753 55L1753 44L1837 44L1837 44L1920 44L1920 77L1920 0L1920 0L1837 0L1837 0L1753 0L1753 0L1670 0L1670 0L1586 0L1586 0L1503 0L1503 0L1419 0L1419 0L1336 0L1336 0L1252 0L1252 0L1169 0L1169 0L1085 0L1085 0L1002 0L1002 0L918 0L918 0L835 0L835 0L751 0L751 0L668 0L668 0L584 0L584 0L501 0L501 0L417 0L417 0L334 0L334 0L250 0L250 0L167 0L167 0L83 0L83 0L0 0Z" fill="#005cff"></path><path d="M0 185L83 185L83 228L167 228L167 163L250 163L250 206L334 206L334 163L417 163L417 174L501 174L501 206L584 206L584 174L668 174L668 141L751 141L751 141L835 141L835 141L918 141L918 163L1002 163L1002 185L1085 185L1085 174L1169 174L1169 185L1252 185L1252 152L1336 152L1336 163L1419 163L1419 206L1503 206L1503 185L1586 185L1586 217L1670 217L1670 195L1753 195L1753 152L1837 152L1837 174L1920 174L1920 228L1920 75L1920 42L1837 42L1837 42L1753 42L1753 53L1670 53L1670 75L1586 75L1586 64L1503 64L1503 64L1419 64L1419 42L1336 42L1336 42L1252 42L1252 75L1169 75L1169 42L1085 42L1085 42L1002 42L1002 75L918 75L918 42L835 42L835 42L751 42L751 42L668 42L668 53L584 53L584 64L501 64L501 64L417 64L417 53L334 53L334 53L250 53L250 53L167 53L167 75L83 75L83 53L0 53Z" fill="#4859fe"></path><path d="M0 271L83 271L83 303L167 303L167 228L250 228L250 282L334 282L334 239L417 239L417 282L501 282L501 282L584 282L584 293L668 293L668 260L751 260L751 249L835 249L835 271L918 271L918 293L1002 293L1002 249L1085 249L1085 260L1169 260L1169 282L1252 282L1252 239L1336 239L1336 249L1419 249L1419 303L1503 303L1503 282L1586 282L1586 293L1670 293L1670 303L1753 303L1753 228L1837 228L1837 282L1920 282L1920 314L1920 226L1920 172L1837 172L1837 150L1753 150L1753 193L1670 193L1670 215L1586 215L1586 183L1503 183L1503 204L1419 204L1419 161L1336 161L1336 150L1252 150L1252 183L1169 183L1169 172L1085 172L1085 183L1002 183L1002 161L918 161L918 139L835 139L835 139L751 139L751 139L668 139L668 172L584 172L584 204L501 204L501 172L417 172L417 161L334 161L334 204L250 204L250 161L167 161L167 226L83 226L83 183L0 183Z" fill="#6856fd"></path><path d="M0 336L83 336L83 401L167 401L167 303L250 303L250 390L334 390L334 293L417 293L417 357L501 357L501 368L584 368L584 347L668 347L668 336L751 336L751 325L835 325L835 357L918 357L918 379L1002 379L1002 336L1085 336L1085 347L1169 347L1169 368L1252 368L1252 325L1336 325L1336 314L1419 314L1419 390L1503 390L1503 336L1586 336L1586 368L1670 368L1670 390L1753 390L1753 314L1837 314L1837 347L1920 347L1920 422L1920 312L1920 280L1837 280L1837 226L1753 226L1753 301L1670 301L1670 291L1586 291L1586 280L1503 280L1503 301L1419 301L1419 247L1336 247L1336 237L1252 237L1252 280L1169 280L1169 258L1085 258L1085 247L1002 247L1002 291L918 291L918 269L835 269L835 247L751 247L751 258L668 258L668 291L584 291L584 280L501 280L501 280L417 280L417 237L334 237L334 280L250 280L250 226L167 226L167 301L83 301L83 269L0 269Z" fill="#8052fb"></path><path d="M0 617L83 617L83 595L167 595L167 563L250 563L250 584L334 584L334 509L417 509L417 541L501 541L501 530L584 530L584 595L668 595L668 552L751 552L751 573L835 573L835 595L918 595L918 541L1002 541L1002 476L1085 476L1085 509L1169 509L1169 584L1252 584L1252 627L1336 627L1336 476L1419 476L1419 595L1503 595L1503 519L1586 519L1586 595L1670 595L1670 563L1753 563L1753 563L1837 563L1837 573L1920 573L1920 606L1920 420L1920 345L1837 345L1837 312L1753 312L1753 388L1670 388L1670 366L1586 366L1586 334L1503 334L1503 388L1419 388L1419 312L1336 312L1336 323L1252 323L1252 366L1169 366L1169 345L1085 345L1085 334L1002 334L1002 377L918 377L918 355L835 355L835 323L751 323L751 334L668 334L668 345L584 345L584 366L501 366L501 355L417 355L417 291L334 291L334 388L250 388L250 301L167 301L167 399L83 399L83 334L0 334Z" fill="#954df9"></path><path d="M0 649L83 649L83 627L167 627L167 595L250 595L250 627L334 627L334 541L417 541L417 584L501 584L501 573L584 573L584 638L668 638L668 595L751 595L751 617L835 617L835 627L918 627L918 573L1002 573L1002 519L1085 519L1085 552L1169 552L1169 627L1252 627L1252 660L1336 660L1336 519L1419 519L1419 627L1503 627L1503 552L1586 552L1586 627L1670 627L1670 606L1753 606L1753 606L1837 606L1837 617L1920 617L1920 649L1920 604L1920 571L1837 571L1837 561L1753 561L1753 561L1670 561L1670 593L1586 593L1586 517L1503 517L1503 593L1419 593L1419 474L1336 474L1336 625L1252 625L1252 582L1169 582L1169 507L1085 507L1085 474L1002 474L1002 539L918 539L918 593L835 593L835 571L751 571L751 550L668 550L668 593L584 593L584 528L501 528L501 539L417 539L417 507L334 507L334 582L250 582L250 561L167 561L167 593L83 593L83 615L0 615Z" fill="#a748f6"></path><path d="M0 822L83 822L83 843L167 843L167 789L250 789L250 854L334 854L334 800L417 800L417 800L501 800L501 800L584 800L584 789L668 789L668 811L751 811L751 833L835 833L835 822L918 822L918 854L1002 854L1002 800L1085 800L1085 822L1169 822L1169 833L1252 833L1252 843L1336 843L1336 833L1419 833L1419 822L1503 822L1503 789L1586 789L1586 789L1670 789L1670 811L1753 811L1753 854L1837 854L1837 811L1920 811L1920 854L1920 647L1920 615L1837 615L1837 604L1753 604L1753 604L1670 604L1670 625L1586 625L1586 550L1503 550L1503 625L1419 625L1419 517L1336 517L1336 658L1252 658L1252 625L1169 625L1169 550L1085 550L1085 517L1002 517L1002 571L918 571L918 625L835 625L835 615L751 615L751 593L668 593L668 636L584 636L584 571L501 571L501 582L417 582L417 539L334 539L334 625L250 625L250 593L167 593L167 625L83 625L83 647L0 647Z" fill="#b842f2"></path><path d="M0 876L83 876L83 897L167 897L167 843L250 843L250 887L334 887L334 854L417 854L417 843L501 843L501 854L584 854L584 843L668 843L668 854L751 854L751 865L835 865L835 854L918 854L918 908L1002 908L1002 843L1085 843L1085 876L1169 876L1169 865L1252 865L1252 876L1336 876L1336 865L1419 865L1419 865L1503 865L1503 833L1586 833L1586 833L1670 833L1670 843L1753 843L1753 887L1837 887L1837 865L1920 865L1920 908L1920 852L1920 809L1837 809L1837 852L1753 852L1753 809L1670 809L1670 787L1586 787L1586 787L1503 787L1503 820L1419 820L1419 831L1336 831L1336 841L1252 841L1252 831L1169 831L1169 820L1085 820L1085 798L1002 798L1002 852L918 852L918 820L835 820L835 831L751 831L751 809L668 809L668 787L584 787L584 798L501 798L501 798L417 798L417 798L334 798L334 852L250 852L250 787L167 787L167 841L83 841L83 820L0 820Z" fill="#c83bee"></path><path d="M0 908L83 908L83 930L167 930L167 897L250 897L250 919L334 919L334 887L417 887L417 897L501 897L501 897L584 897L584 897L668 897L668 919L751 919L751 930L835 930L835 887L918 887L918 941L1002 941L1002 887L1085 887L1085 908L1169 908L1169 919L1252 919L1252 919L1336 919L1336 908L1419 908L1419 908L1503 908L1503 897L1586 897L1586 897L1670 897L1670 887L1753 887L1753 919L1837 919L1837 908L1920 908L1920 941L1920 906L1920 863L1837 863L1837 885L1753 885L1753 841L1670 841L1670 831L1586 831L1586 831L1503 831L1503 863L1419 863L1419 863L1336 863L1336 874L1252 874L1252 863L1169 863L1169 874L1085 874L1085 841L1002 841L1002 906L918 906L918 852L835 852L835 863L751 863L751 852L668 852L668 841L584 841L584 852L501 852L501 841L417 841L417 852L334 852L334 885L250 885L250 841L167 841L167 895L83 895L83 874L0 874Z" fill="#d732e9"></path><path d="M0 951L83 951L83 973L167 973L167 962L250 962L250 973L334 973L334 941L417 941L417 962L501 962L501 962L584 962L584 962L668 962L668 973L751 973L751 984L835 984L835 951L918 951L918 995L1002 995L1002 951L1085 951L1085 951L1169 951L1169 973L1252 973L1252 984L1336 984L1336 962L1419 962L1419 973L1503 973L1503 951L1586 951L1586 962L1670 962L1670 951L1753 951L1753 962L1837 962L1837 962L1920 962L1920 995L1920 939L1920 906L1837 906L1837 917L1753 917L1753 885L1670 885L1670 895L1586 895L1586 895L1503 895L1503 906L1419 906L1419 906L1336 906L1336 917L1252 917L1252 917L1169 917L1169 906L1085 906L1085 885L1002 885L1002 939L918 939L918 885L835 885L835 928L751 928L751 917L668 917L668 895L584 895L584 895L501 895L501 895L417 895L417 885L334 885L334 917L250 917L250 895L167 895L167 928L83 928L83 906L0 906Z" fill="#e528e4"></path><path d="M0 984L83 984L83 1016L167 1016L167 995L250 995L250 1016L334 1016L334 995L417 995L417 1005L501 1005L501 1016L584 1016L584 1016L668 1016L668 1027L751 1027L751 1016L835 1016L835 984L918 984L918 1027L1002 1027L1002 995L1085 995L1085 995L1169 995L1169 1005L1252 1005L1252 1016L1336 1016L1336 1005L1419 1005L1419 1027L1503 1027L1503 1005L1586 1005L1586 1005L1670 1005L1670 1005L1753 1005L1753 1016L1837 1016L1837 1016L1920 1016L1920 1027L1920 993L1920 960L1837 960L1837 960L1753 960L1753 949L1670 949L1670 960L1586 960L1586 949L1503 949L1503 971L1419 971L1419 960L1336 960L1336 982L1252 982L1252 971L1169 971L1169 949L1085 949L1085 949L1002 949L1002 993L918 993L918 949L835 949L835 982L751 982L751 971L668 971L668 960L584 960L584 960L501 960L501 960L417 960L417 939L334 939L334 971L250 971L250 960L167 960L167 971L83 971L83 949L0 949Z" fill="#f31ade"></path><path d="M0 1081L83 1081L83 1081L167 1081L167 1081L250 1081L250 1081L334 1081L334 1081L417 1081L417 1081L501 1081L501 1081L584 1081L584 1081L668 1081L668 1081L751 1081L751 1081L835 1081L835 1081L918 1081L918 1081L1002 1081L1002 1081L1085 1081L1085 1081L1169 1081L1169 1081L1252 1081L1252 1081L1336 1081L1336 1081L1419 1081L1419 1081L1503 1081L1503 1081L1586 1081L1586 1081L1670 1081L1670 1081L1753 1081L1753 1081L1837 1081L1837 1081L1920 1081L1920 1081L1920 1025L1920 1014L1837 1014L1837 1014L1753 1014L1753 1003L1670 1003L1670 1003L1586 1003L1586 1003L1503 1003L1503 1025L1419 1025L1419 1003L1336 1003L1336 1014L1252 1014L1252 1003L1169 1003L1169 993L1085 993L1085 993L1002 993L1002 1025L918 1025L918 982L835 982L835 1014L751 1014L751 1025L668 1025L668 1014L584 1014L584 1014L501 1014L501 1003L417 1003L417 993L334 993L334 1014L250 1014L250 993L167 993L167 1014L83 1014L83 982L0 982Z" fill="#ff00d8"></path></svg>