<svg id="visual" viewBox="0 0 900 600" width="900" height="600" xmlns="http://www.w3.org/2000/svg" xmlns:xlink="http://www.w3.org/1999/xlink" version="1.1"><rect x="0" y="0" width="900" height="600" fill="#00335a"></rect><path d="M0 283L25 293C50 303 100 323 150 321.8C200 320.7 250 298.3 300 302C350 305.7 400 335.3 450 342.5C500 349.7 550 334.3 600 332C650 329.7 700 340.3 750 348C800 355.7 850 360.3 875 362.7L900 365L900 601L875 601C850 601 800 601 750 601C700 601 650 601 600 601C550 601 500 601 450 601C400 601 350 601 300 601C250 601 200 601 150 601C100 601 50 601 25 601L0 601Z" fill="#37af44"></path><path d="M0 395L25 399.3C50 403.7 100 412.3 150 408.2C200 404 250 387 300 378.3C350 369.7 400 369.3 450 374.5C500 379.7 550 390.3 600 396.7C650 403 700 405 750 402.2C800 399.3 850 391.7 875 387.8L900 384L900 601L875 601C850 601 800 601 750 601C700 601 650 601 600 601C550 601 500 601 450 601C400 601 350 601 300 601C250 601 200 601 150 601C100 601 50 601 25 601L0 601Z" fill="#289842"></path><path d="M0 424L25 432.2C50 440.3 100 456.7 150 449.2C200 441.7 250 410.3 300 407.5C350 404.7 400 430.3 450 439.5C500 448.7 550 441.3 600 440.8C650 440.3 700 446.7 750 440.2C800 433.7 850 414.3 875 404.7L900 395L900 601L875 601C850 601 800 601 750 601C700 601 650 601 600 601C550 601 500 601 450 601C400 601 350 601 300 601C250 601 200 601 150 601C100 601 50 601 25 601L0 601Z" fill="#1d813e"></path><path d="M0 497L25 492.7C50 488.3 100 479.7 150 469.8C200 460 250 449 300 455.2C350 461.3 400 484.7 450 496.3C500 508 550 508 600 497.2C650 486.3 700 464.7 750 453.7C800 442.7 850 442.3 875 442.2L900 442L900 601L875 601C850 601 800 601 750 601C700 601 650 601 600 601C550 601 500 601 450 601C400 601 350 601 300 601C250 601 200 601 150 601C100 601 50 601 25 601L0 601Z" fill="#176b38"></path><path d="M0 535L25 532C50 529 100 523 150 516.8C200 510.7 250 504.3 300 507.7C350 511 400 524 450 530.2C500 536.3 550 535.7 600 538.3C650 541 700 547 750 545.8C800 544.7 850 536.3 875 532.2L900 528L900 601L875 601C850 601 800 601 750 601C700 601 650 601 600 601C550 601 500 601 450 601C400 601 350 601 300 601C250 601 200 601 150 601C100 601 50 601 25 601L0 601Z" fill="#145531"></path></svg>