<svg id="visual" viewBox="0 0 1920 1080" width="1920" height="1080" xmlns="http://www.w3.org/2000/svg" xmlns:xlink="http://www.w3.org/1999/xlink" version="1.1"><rect x="0" y="0" width="1920" height="1080" fill="#00042f"></rect><path d="M0 686L45.7 669.2C91.3 652.3 182.7 618.7 274.2 581.3C365.7 544 457.3 503 548.8 501.5C640.3 500 731.7 538 823 559.2C914.3 580.3 1005.7 584.7 1097 579.2C1188.3 573.7 1279.7 558.3 1371.2 543.5C1462.7 528.7 1554.3 514.3 1645.8 510.3C1737.3 506.3 1828.7 512.7 1874.3 515.8L1920 519L1920 1081L1874.3 1081C1828.7 1081 1737.3 1081 1645.8 1081C1554.3 1081 1462.7 1081 1371.2 1081C1279.7 1081 1188.3 1081 1097 1081C1005.7 1081 914.3 1081 823 1081C731.7 1081 640.3 1081 548.8 1081C457.3 1081 365.7 1081 274.2 1081C182.7 1081 91.3 1081 45.7 1081L0 1081Z" fill="#af98ff"></path><path d="M0 560L45.7 564.2C91.3 568.3 182.7 576.7 274.2 613.2C365.7 649.7 457.3 714.3 548.8 743C640.3 771.7 731.7 764.3 823 734C914.3 703.7 1005.7 650.3 1097 647.5C1188.3 644.7 1279.7 692.3 1371.2 694.3C1462.7 696.3 1554.3 652.7 1645.8 656.7C1737.3 660.7 1828.7 712.3 1874.3 738.2L1920 764L1920 1081L1874.3 1081C1828.7 1081 1737.3 1081 1645.8 1081C1554.3 1081 1462.7 1081 1371.2 1081C1279.7 1081 1188.3 1081 1097 1081C1005.7 1081 914.3 1081 823 1081C731.7 1081 640.3 1081 548.8 1081C457.3 1081 365.7 1081 274.2 1081C182.7 1081 91.3 1081 45.7 1081L0 1081Z" fill="#9c81fd"></path><path d="M0 740L45.7 731.3C91.3 722.7 182.7 705.3 274.2 709.3C365.7 713.3 457.3 738.7 548.8 756C640.3 773.3 731.7 782.7 823 771.8C914.3 761 1005.7 730 1097 725.8C1188.3 721.7 1279.7 744.3 1371.2 761.8C1462.7 779.3 1554.3 791.7 1645.8 781C1737.3 770.3 1828.7 736.7 1874.3 719.8L1920 703L1920 1081L1874.3 1081C1828.7 1081 1737.3 1081 1645.8 1081C1554.3 1081 1462.7 1081 1371.2 1081C1279.7 1081 1188.3 1081 1097 1081C1005.7 1081 914.3 1081 823 1081C731.7 1081 640.3 1081 548.8 1081C457.3 1081 365.7 1081 274.2 1081C182.7 1081 91.3 1081 45.7 1081L0 1081Z" fill="#8969fa"></path><path d="M0 790L45.7 802.3C91.3 814.7 182.7 839.3 274.2 860.7C365.7 882 457.3 900 548.8 911C640.3 922 731.7 926 823 904.3C914.3 882.7 1005.7 835.3 1097 835.2C1188.3 835 1279.7 882 1371.2 892.8C1462.7 903.7 1554.3 878.3 1645.8 876.7C1737.3 875 1828.7 897 1874.3 908L1920 919L1920 1081L1874.3 1081C1828.7 1081 1737.3 1081 1645.8 1081C1554.3 1081 1462.7 1081 1371.2 1081C1279.7 1081 1188.3 1081 1097 1081C1005.7 1081 914.3 1081 823 1081C731.7 1081 640.3 1081 548.8 1081C457.3 1081 365.7 1081 274.2 1081C182.7 1081 91.3 1081 45.7 1081L0 1081Z" fill="#7557dd"></path><path d="M0 942L45.7 941.7C91.3 941.3 182.7 940.7 274.2 946C365.7 951.3 457.3 962.7 548.8 969.7C640.3 976.7 731.7 979.3 823 981.7C914.3 984 1005.7 986 1097 976C1188.3 966 1279.7 944 1371.2 945C1462.7 946 1554.3 970 1645.8 972.2C1737.3 974.3 1828.7 954.7 1874.3 944.8L1920 935L1920 1081L1874.3 1081C1828.7 1081 1737.3 1081 1645.8 1081C1554.3 1081 1462.7 1081 1371.2 1081C1279.7 1081 1188.3 1081 1097 1081C1005.7 1081 914.3 1081 823 1081C731.7 1081 640.3 1081 548.8 1081C457.3 1081 365.7 1081 274.2 1081C182.7 1081 91.3 1081 45.7 1081L0 1081Z" fill="#6245c0"></path></svg>