<svg id="visual" viewBox="0 0 900 600" width="900" height="600" xmlns="http://www.w3.org/2000/svg" xmlns:xlink="http://www.w3.org/1999/xlink" version="1.1"><rect x="0" y="0" width="900" height="600" fill="#0e005b"></rect><path d="M0 303L30 311.5C60 320 120 337 180 345C240 353 300 352 360 342.2C420 332.3 480 313.7 540 302.8C600 292 660 289 720 298.5C780 308 840 330 870 341L900 352L900 601L870 601C840 601 780 601 720 601C660 601 600 601 540 601C480 601 420 601 360 601C300 601 240 601 180 601C120 601 60 601 30 601L0 601Z" fill="#fff100"></path><path d="M0 354L30 358.7C60 363.3 120 372.7 180 375.7C240 378.7 300 375.3 360 371.7C420 368 480 364 540 364.8C600 365.7 660 371.3 720 368.2C780 365 840 353 870 347L900 341L900 601L870 601C840 601 780 601 720 601C660 601 600 601 540 601C480 601 420 601 360 601C300 601 240 601 180 601C120 601 60 601 30 601L0 601Z" fill="#f5de00"></path><path d="M0 398L30 400C60 402 120 406 180 412.7C240 419.3 300 428.7 360 431.8C420 435 480 432 540 430.7C600 429.3 660 429.7 720 425C780 420.3 840 410.7 870 405.8L900 401L900 601L870 601C840 601 780 601 720 601C660 601 600 601 540 601C480 601 420 601 360 601C300 601 240 601 180 601C120 601 60 601 30 601L0 601Z" fill="#ebcc00"></path><path d="M0 472L30 474.3C60 476.7 120 481.3 180 484C240 486.7 300 487.3 360 488C420 488.7 480 489.3 540 484.5C600 479.7 660 469.3 720 464C780 458.7 840 458.3 870 458.2L900 458L900 601L870 601C840 601 780 601 720 601C660 601 600 601 540 601C480 601 420 601 360 601C300 601 240 601 180 601C120 601 60 601 30 601L0 601Z" fill="#e0ba00"></path><path d="M0 545L30 540.3C60 535.7 120 526.3 180 521C240 515.7 300 514.3 360 516.2C420 518 480 523 540 528.7C600 534.3 660 540.7 720 540.8C780 541 840 535 870 532L900 529L900 601L870 601C840 601 780 601 720 601C660 601 600 601 540 601C480 601 420 601 360 601C300 601 240 601 180 601C120 601 60 601 30 601L0 601Z" fill="#d4a800"></path></svg>