<svg id="visual" viewBox="0 0 1920 1080" width="1920" height="1080" xmlns="http://www.w3.org/2000/svg" xmlns:xlink="http://www.w3.org/1999/xlink" version="1.1"><rect x="0" y="0" width="1920" height="1080" fill="#000333"></rect><path d="M0 648L64 643.5C128 639 256 630 384 617.8C512 605.7 640 590.3 768 597.3C896 604.3 1024 633.7 1152 648.8C1280 664 1408 665 1536 648.5C1664 632 1792 598 1856 581L1920 564L1920 1081L1856 1081C1792 1081 1664 1081 1536 1081C1408 1081 1280 1081 1152 1081C1024 1081 896 1081 768 1081C640 1081 512 1081 384 1081C256 1081 128 1081 64 1081L0 1081Z" fill="#009d35"></path><path d="M0 731L64 739.8C128 748.7 256 766.3 384 766.3C512 766.3 640 748.7 768 748.8C896 749 1024 767 1152 765.8C1280 764.7 1408 744.3 1536 747.2C1664 750 1792 776 1856 789L1920 802L1920 1081L1856 1081C1792 1081 1664 1081 1536 1081C1408 1081 1280 1081 1152 1081C1024 1081 896 1081 768 1081C640 1081 512 1081 384 1081C256 1081 128 1081 64 1081L0 1081Z" fill="#00b032"></path><path d="M0 864L64 859.2C128 854.3 256 844.7 384 828.5C512 812.3 640 789.7 768 781.5C896 773.3 1024 779.7 1152 794.7C1280 809.7 1408 833.3 1536 830C1664 826.7 1792 796.3 1856 781.2L1920 766L1920 1081L1856 1081C1792 1081 1664 1081 1536 1081C1408 1081 1280 1081 1152 1081C1024 1081 896 1081 768 1081C640 1081 512 1081 384 1081C256 1081 128 1081 64 1081L0 1081Z" fill="#00c32b"></path><path d="M0 940L64 934C128 928 256 916 384 901.2C512 886.3 640 868.7 768 860.8C896 853 1024 855 1152 861.3C1280 867.7 1408 878.3 1536 875.8C1664 873.3 1792 857.7 1856 849.8L1920 842L1920 1081L1856 1081C1792 1081 1664 1081 1536 1081C1408 1081 1280 1081 1152 1081C1024 1081 896 1081 768 1081C640 1081 512 1081 384 1081C256 1081 128 1081 64 1081L0 1081Z" fill="#05d61f"></path><path d="M0 971L64 969C128 967 256 963 384 965.3C512 967.7 640 976.3 768 972.3C896 968.3 1024 951.7 1152 944C1280 936.3 1408 937.7 1536 942.8C1664 948 1792 957 1856 961.5L1920 966L1920 1081L1856 1081C1792 1081 1664 1081 1536 1081C1408 1081 1280 1081 1152 1081C1024 1081 896 1081 768 1081C640 1081 512 1081 384 1081C256 1081 128 1081 64 1081L0 1081Z" fill="#14e900"></path></svg>