<svg id="visual" viewBox="0 0 900 600" width="900" height="600" xmlns="http://www.w3.org/2000/svg" xmlns:xlink="http://www.w3.org/1999/xlink" version="1.1"><g stroke-width="1" stroke-linejoin="bevel"><path d="M499 289L506 209L410 267Z" fill="#3b2449" stroke="#3b2449"></path><path d="M506 209L413 172L410 267Z" fill="#261733" stroke="#261733"></path><path d="M499 289L572 186L506 209Z" fill="#452a53" stroke="#452a53"></path><path d="M506 209L498 105L413 172Z" fill="#291936" stroke="#291936"></path><path d="M373 436L539 361L499 289Z" fill="#321e40" stroke="#321e40"></path><path d="M499 289L595 325L572 186Z" fill="#291936" stroke="#291936"></path><path d="M572 186L498 105L506 209Z" fill="#321e40" stroke="#321e40"></path><path d="M539 361L595 325L499 289Z" fill="#291936" stroke="#291936"></path><path d="M498 105L405 102L413 172Z" fill="#3b2449" stroke="#3b2449"></path><path d="M413 172L307 239L410 267Z" fill="#2f1c3d" stroke="#2f1c3d"></path><path d="M275 106L307 239L413 172Z" fill="#261733" stroke="#261733"></path><path d="M410 267L373 436L499 289Z" fill="#291936" stroke="#291936"></path><path d="M307 239L290 302L410 267Z" fill="#382246" stroke="#382246"></path><path d="M671 133L583 73L572 186Z" fill="#3b2449" stroke="#3b2449"></path><path d="M572 186L583 73L498 105Z" fill="#3b2449" stroke="#3b2449"></path><path d="M498 105L469 0L405 102Z" fill="#2c1b39" stroke="#2c1b39"></path><path d="M290 302L373 436L410 267Z" fill="#382246" stroke="#382246"></path><path d="M539 361L580 436L595 325Z" fill="#261733" stroke="#261733"></path><path d="M500 488L580 436L539 361Z" fill="#3e264d" stroke="#3e264d"></path><path d="M702 372L685 299L595 325Z" fill="#3b2449" stroke="#3b2449"></path><path d="M595 325L685 299L572 186Z" fill="#2c1b39" stroke="#2c1b39"></path><path d="M290 302L286 398L373 436Z" fill="#3b2449" stroke="#3b2449"></path><path d="M405 102L275 106L413 172Z" fill="#422850" stroke="#422850"></path><path d="M307 239L214 271L290 302Z" fill="#452a53" stroke="#452a53"></path><path d="M290 302L218 412L286 398Z" fill="#321e40" stroke="#321e40"></path><path d="M365 0L275 106L405 102Z" fill="#352043" stroke="#352043"></path><path d="M685 299L696 213L572 186Z" fill="#452a53" stroke="#452a53"></path><path d="M696 213L671 133L572 186Z" fill="#382246" stroke="#382246"></path><path d="M373 436L500 488L539 361Z" fill="#3b2449" stroke="#3b2449"></path><path d="M583 73L469 0L498 105Z" fill="#3b2449" stroke="#3b2449"></path><path d="M174 160L214 271L307 239Z" fill="#452a53" stroke="#452a53"></path><path d="M469 0L365 0L405 102Z" fill="#261733" stroke="#261733"></path><path d="M728 481L702 372L580 436Z" fill="#321e40" stroke="#321e40"></path><path d="M580 436L702 372L595 325Z" fill="#291936" stroke="#291936"></path><path d="M833 281L821 181L696 213Z" fill="#3b2449" stroke="#3b2449"></path><path d="M271 478L411 520L373 436Z" fill="#321e40" stroke="#321e40"></path><path d="M373 436L411 520L500 488Z" fill="#2c1b39" stroke="#2c1b39"></path><path d="M214 271L218 412L290 302Z" fill="#321e40" stroke="#321e40"></path><path d="M286 398L271 478L373 436Z" fill="#352043" stroke="#352043"></path><path d="M671 133L630 0L583 73Z" fill="#2f1c3d" stroke="#2f1c3d"></path><path d="M583 73L630 0L469 0Z" fill="#352043" stroke="#352043"></path><path d="M714 0L630 0L671 133Z" fill="#261733" stroke="#261733"></path><path d="M183 118L174 160L275 106Z" fill="#291936" stroke="#291936"></path><path d="M275 106L174 160L307 239Z" fill="#261733" stroke="#261733"></path><path d="M214 271L126 297L218 412Z" fill="#261733" stroke="#261733"></path><path d="M218 412L271 478L286 398Z" fill="#352043" stroke="#352043"></path><path d="M365 0L287 0L275 106Z" fill="#382246" stroke="#382246"></path><path d="M235 0L183 118L275 106Z" fill="#422850" stroke="#422850"></path><path d="M500 488L614 519L580 436Z" fill="#2f1c3d" stroke="#2f1c3d"></path><path d="M521 600L614 519L500 488Z" fill="#261733" stroke="#261733"></path><path d="M287 0L235 0L275 106Z" fill="#3b2449" stroke="#3b2449"></path><path d="M696 213L769 104L671 133Z" fill="#452a53" stroke="#452a53"></path><path d="M821 181L769 104L696 213Z" fill="#382246" stroke="#382246"></path><path d="M107 217L126 297L214 271Z" fill="#2c1b39" stroke="#2c1b39"></path><path d="M107 217L214 271L174 160Z" fill="#321e40" stroke="#321e40"></path><path d="M266 600L431 600L411 520Z" fill="#352043" stroke="#352043"></path><path d="M218 412L228 505L271 478Z" fill="#291936" stroke="#291936"></path><path d="M123 481L228 505L218 412Z" fill="#3e264d" stroke="#3e264d"></path><path d="M769 104L714 0L671 133Z" fill="#3b2449" stroke="#3b2449"></path><path d="M728 481L765 427L702 372Z" fill="#291936" stroke="#291936"></path><path d="M833 281L696 213L685 299Z" fill="#3e264d" stroke="#3e264d"></path><path d="M614 519L728 481L580 436Z" fill="#352043" stroke="#352043"></path><path d="M266 600L411 520L271 478Z" fill="#382246" stroke="#382246"></path><path d="M411 520L431 600L500 488Z" fill="#452a53" stroke="#452a53"></path><path d="M614 519L719 600L728 481Z" fill="#2c1b39" stroke="#2c1b39"></path><path d="M85 136L174 160L183 118Z" fill="#3e264d" stroke="#3e264d"></path><path d="M85 136L107 217L174 160Z" fill="#422850" stroke="#422850"></path><path d="M431 600L521 600L500 488Z" fill="#352043" stroke="#352043"></path><path d="M833 281L685 299L702 372Z" fill="#382246" stroke="#382246"></path><path d="M769 104L826 0L714 0Z" fill="#291936" stroke="#291936"></path><path d="M765 427L833 281L702 372Z" fill="#321e40" stroke="#321e40"></path><path d="M0 339L126 416L126 297Z" fill="#382246" stroke="#382246"></path><path d="M126 297L126 416L218 412Z" fill="#3b2449" stroke="#3b2449"></path><path d="M521 600L606 600L614 519Z" fill="#422850" stroke="#422850"></path><path d="M120 0L85 136L183 118Z" fill="#261733" stroke="#261733"></path><path d="M107 217L0 226L126 297Z" fill="#321e40" stroke="#321e40"></path><path d="M171 600L266 600L228 505Z" fill="#422850" stroke="#422850"></path><path d="M228 505L266 600L271 478Z" fill="#3e264d" stroke="#3e264d"></path><path d="M0 374L123 481L126 416Z" fill="#2f1c3d" stroke="#2f1c3d"></path><path d="M126 416L123 481L218 412Z" fill="#2c1b39" stroke="#2c1b39"></path><path d="M235 0L120 0L183 118Z" fill="#321e40" stroke="#321e40"></path><path d="M728 481L831 498L765 427Z" fill="#352043" stroke="#352043"></path><path d="M900 367L900 268L833 281Z" fill="#352043" stroke="#352043"></path><path d="M606 600L719 600L614 519Z" fill="#352043" stroke="#352043"></path><path d="M900 367L833 281L765 427Z" fill="#382246" stroke="#382246"></path><path d="M833 281L900 196L821 181Z" fill="#352043" stroke="#352043"></path><path d="M900 93L826 0L769 104Z" fill="#352043" stroke="#352043"></path><path d="M900 93L769 104L821 181Z" fill="#2f1c3d" stroke="#2f1c3d"></path><path d="M900 268L900 196L833 281Z" fill="#452a53" stroke="#452a53"></path><path d="M813 600L831 498L728 481Z" fill="#261733" stroke="#261733"></path><path d="M831 498L900 367L765 427Z" fill="#291936" stroke="#291936"></path><path d="M123 481L171 600L228 505Z" fill="#321e40" stroke="#321e40"></path><path d="M0 78L0 226L85 136Z" fill="#3b2449" stroke="#3b2449"></path><path d="M85 136L0 226L107 217Z" fill="#261733" stroke="#261733"></path><path d="M123 481L109 600L171 600Z" fill="#3e264d" stroke="#3e264d"></path><path d="M900 196L900 93L821 181Z" fill="#3b2449" stroke="#3b2449"></path><path d="M0 226L0 339L126 297Z" fill="#321e40" stroke="#321e40"></path><path d="M0 339L0 374L126 416Z" fill="#321e40" stroke="#321e40"></path><path d="M120 0L0 78L85 136Z" fill="#261733" stroke="#261733"></path><path d="M719 600L813 600L728 481Z" fill="#3e264d" stroke="#3e264d"></path><path d="M831 498L900 488L900 367Z" fill="#382246" stroke="#382246"></path><path d="M900 600L900 488L831 498Z" fill="#2c1b39" stroke="#2c1b39"></path><path d="M0 517L109 600L123 481Z" fill="#321e40" stroke="#321e40"></path><path d="M900 93L900 0L826 0Z" fill="#3b2449" stroke="#3b2449"></path><path d="M120 0L0 0L0 78Z" fill="#3b2449" stroke="#3b2449"></path><path d="M0 374L0 517L123 481Z" fill="#2c1b39" stroke="#2c1b39"></path><path d="M813 600L900 600L831 498Z" fill="#3b2449" stroke="#3b2449"></path><path d="M0 517L0 600L109 600Z" fill="#422850" stroke="#422850"></path></g></svg>