<svg id="visual" viewBox="0 0 1920 1080" width="1920" height="1080" xmlns="http://www.w3.org/2000/svg" xmlns:xlink="http://www.w3.org/1999/xlink" version="1.1"><path d="M0 131L64 136.3C128 141.7 256 152.3 384 161.3C512 170.3 640 177.7 768 170.5C896 163.3 1024 141.7 1152 127.2C1280 112.7 1408 105.3 1536 99.8C1664 94.3 1792 90.7 1856 88.8L1920 87L1920 0L1856 0C1792 0 1664 0 1536 0C1408 0 1280 0 1152 0C1024 0 896 0 768 0C640 0 512 0 384 0C256 0 128 0 64 0L0 0Z" fill="#7f65ff"></path><path d="M0 401L64 384.7C128 368.3 256 335.7 384 350C512 364.3 640 425.7 768 445.5C896 465.3 1024 443.7 1152 432.8C1280 422 1408 422 1536 398.7C1664 375.3 1792 328.7 1856 305.3L1920 282L1920 85L1856 86.8C1792 88.7 1664 92.3 1536 97.8C1408 103.3 1280 110.7 1152 125.2C1024 139.7 896 161.3 768 168.5C640 175.7 512 168.3 384 159.3C256 150.3 128 139.7 64 134.3L0 129Z" fill="#5d40ff"></path><path d="M0 681L64 690C128 699 256 717 384 731.5C512 746 640 757 768 760.7C896 764.3 1024 760.7 1152 753.5C1280 746.3 1408 735.7 1536 728.5C1664 721.3 1792 717.7 1856 715.8L1920 714L1920 280L1856 303.3C1792 326.7 1664 373.3 1536 396.7C1408 420 1280 420 1152 430.8C1024 441.7 896 463.3 768 443.5C640 423.7 512 362.3 384 348C256 333.7 128 366.3 64 382.7L0 399Z" fill="#2700ff"></path><path d="M0 930L64 931.8C128 933.7 256 937.3 384 946.3C512 955.3 640 969.7 768 966C896 962.3 1024 940.7 1152 931.7C1280 922.7 1408 926.3 1536 933.5C1664 940.7 1792 951.3 1856 956.7L1920 962L1920 712L1856 713.8C1792 715.7 1664 719.3 1536 726.5C1408 733.7 1280 744.3 1152 751.5C1024 758.7 896 762.3 768 758.7C640 755 512 744 384 729.5C256 715 128 697 64 688L0 679Z" fill="#1d06dd"></path><path d="M0 1081L64 1081C128 1081 256 1081 384 1081C512 1081 640 1081 768 1081C896 1081 1024 1081 1152 1081C1280 1081 1408 1081 1536 1081C1664 1081 1792 1081 1856 1081L1920 1081L1920 960L1856 954.7C1792 949.3 1664 938.7 1536 931.5C1408 924.3 1280 920.7 1152 929.7C1024 938.7 896 960.3 768 964C640 967.7 512 953.3 384 944.3C256 935.3 128 931.7 64 929.8L0 928Z" fill="#1509bb"></path></svg>